<?xml version="1.0" encoding="UTF-8" standalone="no"?>
<!-- Created with Inkscape (http://www.inkscape.org/) -->

<svg
   xmlns:dc="http://purl.org/dc/elements/1.1/"
   xmlns:cc="http://creativecommons.org/ns#"
   xmlns:rdf="http://www.w3.org/1999/02/22-rdf-syntax-ns#"
   xmlns:svg="http://www.w3.org/2000/svg"
   xmlns="http://www.w3.org/2000/svg"
   xmlns:sodipodi="http://sodipodi.sourceforge.net/DTD/sodipodi-0.dtd"
   xmlns:inkscape="http://www.inkscape.org/namespaces/inkscape"
   inkscape:export-ydpi="96"
   inkscape:export-xdpi="96"
   inkscape:export-filename="D:\Desktop\刘凤杰.png"
   sodipodi:docname="刘凤杰.svg"
   inkscape:version="0.92.4 (5da689c313, 2019-01-14)"
   id="svg8"
   version="1.1"
   viewBox="0 0 285.74999 508.00002"
   height="1920"
   width="1080">
  <defs
     id="defs2">
    <filter
       style="color-interpolation-filters:sRGB;"
       inkscape:label="Duochrome"
       id="filter327">
      <feColorMatrix
         type="luminanceToAlpha"
         result="colormatrix1"
         id="feColorMatrix307" />
      <feFlood
         flood-opacity="1"
         flood-color="rgb(0,0,0)"
         result="flood1"
         id="feFlood309" />
      <feComposite
         in2="colormatrix1"
         operator="out"
         result="composite1"
         id="feComposite311" />
      <feFlood
         flood-opacity="1"
         flood-color="rgb(255,255,255)"
         result="flood2"
         id="feFlood313" />
      <feComposite
         in2="colormatrix1"
         result="composite2"
         operator="in"
         id="feComposite315" />
      <feComposite
         in="composite2"
         in2="composite1"
         k2="1"
         k3="1"
         operator="arithmetic"
         result="composite3"
         id="feComposite317" />
      <feColorMatrix
         in="composite3"
         type="matrix"
         values="2 -1 0 0 0 0 2 -1 0 0 -1 0 2 0 0 0 0 0 1 0 "
         result="colormatrix2"
         id="feColorMatrix319" />
      <feComposite
         in="colormatrix2"
         in2="composite3"
         operator="arithmetic"
         k2="2"
         result="composite4"
         id="feComposite321" />
      <feBlend
         in="composite4"
         in2="composite3"
         mode="normal"
         result="blend"
         id="feBlend323" />
      <feComposite
         in2="SourceGraphic"
         operator="in"
         id="feComposite325" />
    </filter>
    <filter
       style="color-interpolation-filters:sRGB;"
       inkscape:label="Duochrome"
       id="filter365">
      <feColorMatrix
         type="luminanceToAlpha"
         result="colormatrix1"
         id="feColorMatrix345" />
      <feFlood
         flood-opacity="1"
         flood-color="rgb(0,0,0)"
         result="flood1"
         id="feFlood347" />
      <feComposite
         in2="colormatrix1"
         operator="out"
         result="composite1"
         id="feComposite349" />
      <feFlood
         flood-opacity="1"
         flood-color="rgb(255,255,255)"
         result="flood2"
         id="feFlood351" />
      <feComposite
         in2="colormatrix1"
         result="composite2"
         operator="in"
         id="feComposite353" />
      <feComposite
         in="composite2"
         in2="composite1"
         k2="1"
         k3="1"
         operator="arithmetic"
         result="composite3"
         id="feComposite355" />
      <feColorMatrix
         in="composite3"
         type="matrix"
         values="2 -1 0 0 0 0 2 -1 0 0 -1 0 2 0 0 0 0 0 1 0 "
         result="colormatrix2"
         id="feColorMatrix357" />
      <feComposite
         in="colormatrix2"
         in2="composite3"
         operator="arithmetic"
         k2="2"
         result="composite4"
         id="feComposite359" />
      <feBlend
         in="composite4"
         in2="composite3"
         mode="normal"
         result="blend"
         id="feBlend361" />
      <feComposite
         in2="SourceGraphic"
         operator="in"
         id="feComposite363" />
    </filter>
  </defs>
  <sodipodi:namedview
     id="base"
     pagecolor="#000000"
     bordercolor="#666666"
     borderopacity="1.0"
     inkscape:pageopacity="0"
     inkscape:pageshadow="2"
     inkscape:zoom="0.49497475"
     inkscape:cx="923.504"
     inkscape:cy="391.70768"
     inkscape:document-units="px"
     inkscape:current-layer="layer2"
     showgrid="false"
     inkscape:pagecheckerboard="true"
     units="px"
     inkscape:window-width="1920"
     inkscape:window-height="1017"
     inkscape:window-x="-8"
     inkscape:window-y="-8"
     inkscape:window-maximized="1" />
  <metadata
     id="metadata5">
    <rdf:RDF>
      <cc:Work
         rdf:about="">
        <dc:format>image/svg+xml</dc:format>
        <dc:type
           rdf:resource="http://purl.org/dc/dcmitype/StillImage" />
        <dc:title />
      </cc:Work>
    </rdf:RDF>
  </metadata>
  <g
     inkscape:groupmode="layer"
     id="layer2"
     inkscape:label="Layer 2"
     transform="translate(0,254)">
    <rect
       style="fill:#000000;stroke-width:0.26458335"
       id="rect33"
       width="285.75"
       height="508"
       x="3.1249982e-07"
       y="-254" />
  </g>
  <g
     inkscape:label="Layer 1"
     inkscape:groupmode="layer"
     id="layer1"
     transform="translate(0,211.00003)">
    <g
       id="g1954"
       transform="translate(6.2460988e-7,20.214626)">
      <g
         aria-label="BIG SISTER IS WATCHING YOU"
         transform="matrix(0.50821062,0,0,0.50821062,-237.59658,-180.77054)"
         style="font-style:normal;font-weight:normal;font-size:40px;line-height:1.25;font-family:sans-serif;letter-spacing:0px;word-spacing:0px;fill:#ffffff;fill-opacity:1;stroke:none"
         id="flowRoot3726">
        <path
           d="m 613.32129,622.04778 h 13.125 q 6.21875,0 9.40625,0.96875 3.21875,0.96875 5.1875,3.9375 1.96875,2.9375 1.96875,9.5 0,4.4375 -1.40625,6.1875 -1.375,1.75 -5.46875,2.6875 4.5625,1.03125 6.1875,3.4375 1.625,2.375 1.625,7.3125 v 4.6875 q 0,5.125 -1.1875,7.59375 -1.15625,2.46875 -3.71875,3.375 -2.5625,0.90625 -10.5,0.90625 h -15.21875 z m 13.15625,8.65625 v 11.25 q 0.84375,-0.0312 1.3125,-0.0312 1.9375,0 2.46875,-0.9375 0.53125,-0.96875 0.53125,-5.46875 0,-2.375 -0.4375,-3.3125 -0.4375,-0.96875 -1.15625,-1.21875 -0.6875,-0.25 -2.71875,-0.28125 z m 0,19.125 v 14.15625 q 2.78125,-0.0937 3.53125,-0.875 0.78125,-0.78125 0.78125,-3.84375 v -4.71875 q 0,-3.25 -0.6875,-3.9375 -0.6875,-0.6875 -3.625,-0.78125 z"
           style="font-style:normal;font-variant:normal;font-weight:normal;font-stretch:normal;font-size:64px;font-family:Impact;-inkscape-font-specification:Impact;text-align:center;text-anchor:middle;fill:#ffffff"
           id="path14"
           inkscape:connector-curvature="0" />
        <path
           d="m 661.85254,622.04778 v 50.59375 h -13.15625 v -50.59375 z"
           style="font-style:normal;font-variant:normal;font-weight:normal;font-stretch:normal;font-size:64px;font-family:Impact;-inkscape-font-specification:Impact;text-align:center;text-anchor:middle;fill:#ffffff"
           id="path16"
           inkscape:connector-curvature="0" />
        <path
           d="m 697.38379,640.67278 h -13.15625 v -4.59375 q 0,-4.34375 -0.375,-5.4375 -0.375,-1.09375 -1.78125,-1.09375 -1.21875,0 -1.65625,0.9375 -0.4375,0.9375 -0.4375,4.8125 v 24.28125 q 0,3.40625 0.4375,4.5 0.4375,1.0625 1.75,1.0625 1.4375,0 1.9375,-1.21875 0.53125,-1.21875 0.53125,-4.75 v -6 h -2.65625 v -7.6875 h 15.40625 v 27.15625 h -8.28125 l -1.21875,-3.625 q -1.34375,2.34375 -3.40625,3.53125 -2.03125,1.15625 -4.8125,1.15625 -3.3125,0 -6.21875,-1.59375 -2.875,-1.625 -4.375,-4 -1.5,-2.375 -1.875,-4.96875 -0.375,-2.625 -0.375,-7.84375 v -15.03125 q 0,-7.25 0.78125,-10.53125 0.78125,-3.28125 4.46875,-6 3.71875,-2.75 9.59375,-2.75 5.78125,0 9.59375,2.375 3.8125,2.375 4.96875,5.65625 1.15625,3.25 1.15625,9.46875 z"
           style="font-style:normal;font-variant:normal;font-weight:normal;font-stretch:normal;font-size:64px;font-family:Impact;-inkscape-font-specification:Impact;text-align:center;text-anchor:middle;fill:#ffffff"
           id="path18"
           inkscape:connector-curvature="0" />
        <path
           d="m 741.57129,637.36028 h -12.21875 v -3.75 q 0,-2.625 -0.46875,-3.34375 -0.46875,-0.71875 -1.5625,-0.71875 -1.1875,0 -1.8125,0.96875 -0.59375,0.96875 -0.59375,2.9375 0,2.53125 0.6875,3.8125 0.65625,1.28125 3.71875,3.09375 8.78125,5.21875 11.0625,8.5625 2.28125,3.34375 2.28125,10.78125 0,5.40625 -1.28125,7.96875 -1.25,2.5625 -4.875,4.3125 -3.625,1.71875 -8.4375,1.71875 -5.28125,0 -9.03125,-2 -3.71875,-2 -4.875,-5.09375 -1.15625,-3.09375 -1.15625,-8.78125 v -3.3125 h 12.21875 v 6.15625 q 0,2.84375 0.5,3.65625 0.53125,0.8125 1.84375,0.8125 1.3125,0 1.9375,-1.03125 0.65625,-1.03125 0.65625,-3.0625 0,-4.46875 -1.21875,-5.84375 -1.25,-1.375 -6.15625,-4.59375 -4.90625,-3.25 -6.5,-4.71875 -1.59375,-1.46875 -2.65625,-4.0625 -1.03125,-2.59375 -1.03125,-6.625 0,-5.8125 1.46875,-8.5 1.5,-2.6875 4.8125,-4.1875 3.3125,-1.53125 8,-1.53125 5.125,0 8.71875,1.65625 3.625,1.65625 4.78125,4.1875 1.1875,2.5 1.1875,8.53125 z"
           style="font-style:normal;font-variant:normal;font-weight:normal;font-stretch:normal;font-size:64px;font-family:Impact;-inkscape-font-specification:Impact;text-align:center;text-anchor:middle;fill:#ffffff"
           id="path20"
           inkscape:connector-curvature="0" />
        <path
           d="m 759.97754,622.04778 v 50.59375 h -13.15625 v -50.59375 z"
           style="font-style:normal;font-variant:normal;font-weight:normal;font-stretch:normal;font-size:64px;font-family:Impact;-inkscape-font-specification:Impact;text-align:center;text-anchor:middle;fill:#ffffff"
           id="path22"
           inkscape:connector-curvature="0" />
        <path
           d="m 793.19629,637.36028 h -12.21875 v -3.75 q 0,-2.625 -0.46875,-3.34375 -0.46875,-0.71875 -1.5625,-0.71875 -1.1875,0 -1.8125,0.96875 -0.59375,0.96875 -0.59375,2.9375 0,2.53125 0.6875,3.8125 0.65625,1.28125 3.71875,3.09375 8.78125,5.21875 11.0625,8.5625 2.28125,3.34375 2.28125,10.78125 0,5.40625 -1.28125,7.96875 -1.25,2.5625 -4.875,4.3125 -3.625,1.71875 -8.4375,1.71875 -5.28125,0 -9.03125,-2 -3.71875,-2 -4.875,-5.09375 -1.15625,-3.09375 -1.15625,-8.78125 v -3.3125 h 12.21875 v 6.15625 q 0,2.84375 0.5,3.65625 0.53125,0.8125 1.84375,0.8125 1.3125,0 1.9375,-1.03125 0.65625,-1.03125 0.65625,-3.0625 0,-4.46875 -1.21875,-5.84375 -1.25,-1.375 -6.15625,-4.59375 -4.90625,-3.25 -6.5,-4.71875 -1.59375,-1.46875 -2.65625,-4.0625 -1.03125,-2.59375 -1.03125,-6.625 0,-5.8125 1.46875,-8.5 1.5,-2.6875 4.8125,-4.1875 3.3125,-1.53125 8,-1.53125 5.125,0 8.71875,1.65625 3.625,1.65625 4.78125,4.1875 1.1875,2.5 1.1875,8.53125 z"
           style="font-style:normal;font-variant:normal;font-weight:normal;font-stretch:normal;font-size:64px;font-family:Impact;-inkscape-font-specification:Impact;text-align:center;text-anchor:middle;fill:#ffffff"
           id="path24"
           inkscape:connector-curvature="0" />
        <path
           d="m 824.94629,622.04778 v 10.125 h -7.8125 v 40.46875 h -13.15625 v -40.46875 h -7.78125 v -10.125 z"
           style="font-style:normal;font-variant:normal;font-weight:normal;font-stretch:normal;font-size:64px;font-family:Impact;-inkscape-font-specification:Impact;text-align:center;text-anchor:middle;fill:#ffffff"
           id="path26"
           inkscape:connector-curvature="0" />
        <path
           d="m 827.94629,622.04778 h 21.9375 v 10.125 h -8.78125 v 9.59375 h 8.21875 v 9.625 h -8.21875 v 11.125 h 9.65625 v 10.125 h -22.8125 z"
           style="font-style:normal;font-variant:normal;font-weight:normal;font-stretch:normal;font-size:64px;font-family:Impact;-inkscape-font-specification:Impact;text-align:center;text-anchor:middle;fill:#ffffff"
           id="path28"
           inkscape:connector-curvature="0" />
        <path
           d="m 854.57129,622.04778 h 9.3125 q 9.3125,0 12.59375,0.71875 3.3125,0.71875 5.375,3.6875 2.09375,2.9375 2.09375,9.40625 0,5.90625 -1.46875,7.9375 -1.46875,2.03125 -5.78125,2.4375 3.90625,0.96875 5.25,2.59375 1.34375,1.625 1.65625,3 0.34375,1.34375 0.34375,7.46875 v 13.34375 h -12.21875 v -16.8125 q 0,-4.0625 -0.65625,-5.03125 -0.625,-0.96875 -3.34375,-0.96875 v 22.8125 h -13.15625 z m 13.15625,8.65625 v 11.25 q 2.21875,0 3.09375,-0.59375 0.90625,-0.625 0.90625,-3.96875 v -2.78125 q 0,-2.40625 -0.875,-3.15625 -0.84375,-0.75 -3.125,-0.75 z"
           style="font-style:normal;font-variant:normal;font-weight:normal;font-stretch:normal;font-size:64px;font-family:Impact;-inkscape-font-specification:Impact;text-align:center;text-anchor:middle;fill:#ffffff"
           id="path30"
           inkscape:connector-curvature="0" />
        <path
           d="m 542.47754,702.04778 v 50.59375 h -13.15625 v -50.59375 z"
           style="font-style:normal;font-variant:normal;font-weight:normal;font-stretch:normal;font-size:64px;font-family:Impact;-inkscape-font-specification:Impact;text-align:center;text-anchor:middle;fill:#ffffff"
           id="path32"
           inkscape:connector-curvature="0" />
        <path
           d="m 575.69629,717.36028 h -12.21875 v -3.75 q 0,-2.625 -0.46875,-3.34375 -0.46875,-0.71875 -1.5625,-0.71875 -1.1875,0 -1.8125,0.96875 -0.59375,0.96875 -0.59375,2.9375 0,2.53125 0.6875,3.8125 0.65625,1.28125 3.71875,3.09375 8.78125,5.21875 11.0625,8.5625 2.28125,3.34375 2.28125,10.78125 0,5.40625 -1.28125,7.96875 -1.25,2.5625 -4.875,4.3125 -3.625,1.71875 -8.4375,1.71875 -5.28125,0 -9.03125,-2 -3.71875,-2 -4.875,-5.09375 -1.15625,-3.09375 -1.15625,-8.78125 v -3.3125 h 12.21875 v 6.15625 q 0,2.84375 0.5,3.65625 0.53125,0.8125 1.84375,0.8125 1.3125,0 1.9375,-1.03125 0.65625,-1.03125 0.65625,-3.0625 0,-4.46875 -1.21875,-5.84375 -1.25,-1.375 -6.15625,-4.59375 -4.90625,-3.25 -6.5,-4.71875 -1.59375,-1.46875 -2.65625,-4.0625 -1.03125,-2.59375 -1.03125,-6.625 0,-5.8125 1.46875,-8.5 1.5,-2.6875 4.8125,-4.1875 3.3125,-1.53125 8,-1.53125 5.125,0 8.71875,1.65625 3.625,1.65625 4.78125,4.1875 1.1875,2.5 1.1875,8.53125 z"
           style="font-style:normal;font-variant:normal;font-weight:normal;font-stretch:normal;font-size:64px;font-family:Impact;-inkscape-font-specification:Impact;text-align:center;text-anchor:middle;fill:#ffffff"
           id="path34"
           inkscape:connector-curvature="0" />
        <path
           d="m 641.69629,702.04778 -5.84375,50.59375 h -16.4375 q -2.25,-11.65625 -3.96875,-26.5 -0.78125,6.34375 -3.65625,26.5 h -16.34375 l -5.875,-50.59375 h 12.78125 l 1.34375,17.65625 1.375,17.03125 q 0.71875,-13.21875 3.625,-34.6875 h 13.6875 q 0.28125,2.21875 1.4375,16.6875 l 1.4375,19.21875 q 1.09375,-18.34375 3.65625,-35.90625 z"
           style="font-style:normal;font-variant:normal;font-weight:normal;font-stretch:normal;font-size:64px;font-family:Impact;-inkscape-font-specification:Impact;text-align:center;text-anchor:middle;fill:#ffffff"
           id="path36"
           inkscape:connector-curvature="0" />
        <path
           d="m 666.41504,702.04778 7.53125,50.59375 h -13.46875 l -0.65625,-9.09375 h -4.71875 l -0.78125,9.09375 h -13.625 l 6.6875,-50.59375 z m -6.96875,32.53125 q -1,-8.59375 -2,-21.21875 -2,14.5 -2.5,21.21875 z"
           style="font-style:normal;font-variant:normal;font-weight:normal;font-stretch:normal;font-size:64px;font-family:Impact;-inkscape-font-specification:Impact;text-align:center;text-anchor:middle;fill:#ffffff"
           id="path38"
           inkscape:connector-curvature="0" />
        <path
           d="m 699.19629,702.04778 v 10.125 h -7.8125 v 40.46875 h -13.15625 v -40.46875 h -7.78125 v -10.125 z"
           style="font-style:normal;font-variant:normal;font-weight:normal;font-stretch:normal;font-size:64px;font-family:Impact;-inkscape-font-specification:Impact;text-align:center;text-anchor:middle;fill:#ffffff"
           id="path40"
           inkscape:connector-curvature="0" />
        <path
           d="m 732.91504,724.11028 h -13.15625 v -8.8125 q 0,-3.84375 -0.4375,-4.78125 -0.40625,-0.96875 -1.84375,-0.96875 -1.625,0 -2.0625,1.15625 -0.4375,1.15625 -0.4375,5 v 23.5 q 0,3.6875 0.4375,4.8125 0.4375,1.125 1.96875,1.125 1.46875,0 1.90625,-1.125 0.46875,-1.125 0.46875,-5.28125 v -6.34375 h 13.15625 v 1.96875 q 0,7.84375 -1.125,11.125 -1.09375,3.28125 -4.90625,5.75 -3.78125,2.46875 -9.34375,2.46875 -5.78125,0 -9.53125,-2.09375 -3.75,-2.09375 -4.96875,-5.78125 -1.21875,-3.71875 -1.21875,-11.15625 v -14.78125 q 0,-5.46875 0.375,-8.1875 0.375,-2.75 2.21875,-5.28125 1.875,-2.53125 5.15625,-3.96875 3.3125,-1.46875 7.59375,-1.46875 5.8125,0 9.59375,2.25 3.78125,2.25 4.96875,5.625 1.1875,3.34375 1.1875,10.4375 z"
           style="font-style:normal;font-variant:normal;font-weight:normal;font-stretch:normal;font-size:64px;font-family:Impact;-inkscape-font-specification:Impact;text-align:center;text-anchor:middle;fill:#ffffff"
           id="path42"
           inkscape:connector-curvature="0" />
        <path
           d="m 767.94629,702.04778 v 50.59375 h -13.15625 v -21.25 h -3.9375 v 21.25 h -13.15625 v -50.59375 h 13.15625 v 18.09375 h 3.9375 v -18.09375 z"
           style="font-style:normal;font-variant:normal;font-weight:normal;font-stretch:normal;font-size:64px;font-family:Impact;-inkscape-font-specification:Impact;text-align:center;text-anchor:middle;fill:#ffffff"
           id="path44"
           inkscape:connector-curvature="0" />
        <path
           d="m 786.35254,702.04778 v 50.59375 h -13.15625 v -50.59375 z"
           style="font-style:normal;font-variant:normal;font-weight:normal;font-stretch:normal;font-size:64px;font-family:Impact;-inkscape-font-specification:Impact;text-align:center;text-anchor:middle;fill:#ffffff"
           id="path46"
           inkscape:connector-curvature="0" />
        <path
           d="m 821.07129,702.04778 v 50.59375 h -11.53125 l -6.84375,-23 v 23 h -11 v -50.59375 h 11 l 7.375,22.78125 v -22.78125 z"
           style="font-style:normal;font-variant:normal;font-weight:normal;font-stretch:normal;font-size:64px;font-family:Impact;-inkscape-font-specification:Impact;text-align:center;text-anchor:middle;fill:#ffffff"
           id="path48"
           inkscape:connector-curvature="0" />
        <path
           d="m 856.50879,720.67278 h -13.15625 v -4.59375 q 0,-4.34375 -0.375,-5.4375 -0.375,-1.09375 -1.78125,-1.09375 -1.21875,0 -1.65625,0.9375 -0.4375,0.9375 -0.4375,4.8125 v 24.28125 q 0,3.40625 0.4375,4.5 0.4375,1.0625 1.75,1.0625 1.4375,0 1.9375,-1.21875 0.53125,-1.21875 0.53125,-4.75 v -6 h -2.65625 v -7.6875 h 15.40625 v 27.15625 h -8.28125 l -1.21875,-3.625 q -1.34375,2.34375 -3.40625,3.53125 -2.03125,1.15625 -4.8125,1.15625 -3.3125,0 -6.21875,-1.59375 -2.875,-1.625 -4.375,-4 -1.5,-2.375 -1.875,-4.96875 -0.375,-2.625 -0.375,-7.84375 v -15.03125 q 0,-7.25 0.78125,-10.53125 0.78125,-3.28125 4.46875,-6 3.71875,-2.75 9.59375,-2.75 5.78125,0 9.59375,2.375 3.8125,2.375 4.96875,5.65625 1.15625,3.25 1.15625,9.46875 z"
           style="font-style:normal;font-variant:normal;font-weight:normal;font-stretch:normal;font-size:64px;font-family:Impact;-inkscape-font-specification:Impact;text-align:center;text-anchor:middle;fill:#ffffff"
           id="path50"
           inkscape:connector-curvature="0" />
        <path
           d="m 900.85254,702.04778 -9.59375,32.28125 v 18.3125 h -12.1875 v -18.3125 l -9.25,-32.28125 h 12.09375 q 2.84375,14.78125 3.1875,19.90625 1.09375,-8.09375 3.65625,-19.90625 z"
           style="font-style:normal;font-variant:normal;font-weight:normal;font-stretch:normal;font-size:64px;font-family:Impact;-inkscape-font-specification:Impact;text-align:center;text-anchor:middle;fill:#ffffff"
           id="path52"
           inkscape:connector-curvature="0" />
        <path
           d="m 933.13379,731.67278 q 0,7.625 -0.375,10.8125 -0.34375,3.15625 -2.25,5.78125 -1.875,2.625 -5.09375,4.03125 -3.21875,1.40625 -7.5,1.40625 -4.0625,0 -7.3125,-1.3125 -3.21875,-1.34375 -5.1875,-4 -1.96875,-2.65625 -2.34375,-5.78125 -0.375,-3.125 -0.375,-10.9375 v -8.65625 q 0,-7.625 0.34375,-10.78125 0.375,-3.1875 2.25,-5.8125 1.90625,-2.625 5.125,-4.03125 3.21875,-1.40625 7.5,-1.40625 4.0625,0 7.28125,1.34375 3.25,1.3125 5.21875,3.96875 1.96875,2.65625 2.34375,5.78125 0.375,3.125 0.375,10.9375 z m -13.15625,-16.625 q 0,-3.53125 -0.40625,-4.5 -0.375,-1 -1.59375,-1 -1.03125,0 -1.59375,0.8125 -0.53125,0.78125 -0.53125,4.6875 v 23.625 q 0,4.40625 0.34375,5.4375 0.375,1.03125 1.6875,1.03125 1.34375,0 1.71875,-1.1875 0.375,-1.1875 0.375,-5.65625 z"
           style="font-style:normal;font-variant:normal;font-weight:normal;font-stretch:normal;font-size:64px;font-family:Impact;-inkscape-font-specification:Impact;text-align:center;text-anchor:middle;fill:#ffffff"
           id="path54"
           inkscape:connector-curvature="0" />
        <path
           d="m 967.97754,702.04778 v 33.8125 q 0,5.75 -0.375,8.09375 -0.375,2.3125 -2.21875,4.78125 -1.84375,2.4375 -4.875,3.71875 -3,1.25 -7.09375,1.25 -4.53125,0 -8,-1.5 -3.46875,-1.5 -5.1875,-3.90625 -1.71875,-2.40625 -2.03125,-5.0625 -0.3125,-2.6875 -0.3125,-11.25 v -29.9375 h 13.15625 v 37.9375 q 0,3.3125 0.34375,4.25 0.375,0.90625 1.46875,0.90625 1.25,0 1.59375,-1 0.375,-1.03125 0.375,-4.8125 v -37.28125 z"
           style="font-style:normal;font-variant:normal;font-weight:normal;font-stretch:normal;font-size:64px;font-family:Impact;-inkscape-font-specification:Impact;text-align:center;text-anchor:middle;fill:#ffffff"
           id="path56"
           inkscape:connector-curvature="0" />
      </g>
      <g
         transform="matrix(1.9200757,0,0,1.9200757,314.07194,-166.28829)"
         id="g1926">
        <path
           style="fill:#ffffff;stroke-width:0.26458335"
           d="m -86.299553,4.9941397 c -4.97212,0.08844 -9.95911,1.519797 -14.517577,3.011719 -6.36156,-0.129414 -10.92791,5.8988643 -16.16211,8.7910153 -8.05255,5.110197 -7.58464,16.107573 -11.73633,23.794922 -2.48003,9.485164 -0.0669,20.45904 6.18945,27.962891 3.31692,0.289616 4.96448,1.9181 4.48633,5.361328 0.39598,2.604841 0.62416,5.328264 1.81836,7.720703 -6.66607,4.938571 -11.98706,11.401486 -16.70898,18.074219 -4.41183,-0.601573 -8.51244,1.313813 -12.52344,2.513663 -3.5705,-0.8755 -9.61908,0.27786 -10.29102,4.56055 1.92876,4.63367 6.35225,-1.53978 9.56506,0.26294 2.9125,1.37026 9.52641,-4.63125 9.89002,-1.4231 -2.99556,3.97599 -4.88515,10.00144 -0.34179,13.70117 4.00869,4.31134 10.12284,7.20983 15.85156,7.61524 2.91291,-0.46088 -0.014,-4.29223 1.38476,-4.0625 0.86232,-5.37321 3.16267,-10.1554 6.90235,-14.12891 5.94438,1.95263 6.4842,9.69128 6.6949,15.18245 -0.78379,2.90749 2.42467,7.35415 4.85002,3.86443 0.53631,-5.14 -0.6163,-10.69324 -1.86328,-15.74024 -1.18344,-3.43004 -4.06962,-5.86201 -6.86914,-7.6582 -1.8251,-3.63193 2.70532,0.68536 3.44922,-2.35742 0.69808,-3.253598 -1.67297,-6.660938 -1.71485,-9.802729 1.62209,4.456471 3.5723,9.659229 8.966797,10.511709 3.75138,0.61984 7.59657,3.79566 10.79888,3.67857 3.86723,-2.1246 5.56908,-6.511027 9.18745,-8.821139 -0.25417,3.677269 3.02661,7.590739 -1.00977,10.158199 -4.62653,5.86361 -9.36935,12.35296 -11.01367,19.69531 1.10133,3.60611 5.14621,1.3479 5.41992,-1.50195 2.67329,-7.62814 8.52697,-13.41164 12.81641,-19.96094 0.20055,-4.22987 -2.79555,-8.385464 -0.50586,-12.654291 0.27715,-3.02169 3.23657,-4.509654 4.50586,-7.044922 4.33399,3.031809 8.32951,9.232477 14.52148,6.962891 7.512633,-2.281604 15.709443,-0.08694 20.828123,5.947151 3.588611,2.316051 4.820429,6.027451 5.955085,9.826281 2.270551,3.67161 5.84725,9.87782 4.662735,1.58762 0.125741,-6.02984 -2.77982,-11.847695 -7.767113,-15.340378 -5.998087,-6.704009 -15.438037,-9.242914 -24.05773,-6.864424 -5.21663,1.98419 -7.88938,-4.525123 -11.93946,-6.513672 2.04824,-4.132411 3.88037,-8.425221 8.2793,-10.570312 1.99459,-4.430198 5.07978,-8.346719 7.35352,-12.617188 1.525753,-7.747524 4.827863,-17.011852 -0.95704,-23.878906 -2.0995,-6.061436 -5.06948,-11.859403 -8.67773,-17.103516 -4.57046,-3.608891 -7.27515,-9.6978503 -13.46484,-10.7324223 -3.9894,-1.07404 -8.10642,-1.989236 -12.25586,-2.007812 z M -113.28979,88.65039 c 1.84563,3.194356 -2.97282,3.820353 -1.92383,6.974609 -0.13421,2.919845 0.93339,7.174001 0.2793,9.453121 -1.79327,0.30488 -3.41926,5.04274 -3.06055,1.00391 -0.62713,-6.103804 1.89647,-12.229214 4.70508,-17.43164 z m -6.73633,2.955078 c -2.89641,9.047292 -8.11676,19.272362 -4.51172,28.830072 2.28864,2.52773 -3.01169,-0.6151 -4.04101,-0.94336 -3.44407,-1.71345 -8.47749,-5.57443 -4.57422,-9.68359 3.41305,-6.93755 8.29593,-12.9897 13.34961,-18.812497 z m 54.273437,21.093742 c -2.83093,0.82543 -9.03228,3.9002 -5.53906,7.27539 2.92832,0.81254 5.51981,-2.29692 7.80859,-3.77344 1.11581,-1.55966 -0.36361,-3.91745 -2.26953,-3.50195 z"
           id="path1894"
           inkscape:connector-curvature="0"
           sodipodi:nodetypes="ccccccccccccccccccccccccccccccccccccccccccccccccccccccccccc" />
        <path
           style="fill:#000000;stroke-width:0.26458335"
           d="m -88.937579,126.95156 c 0,-0.22692 0.46481,-1.38778 1.03291,-2.57969 0.56809,-1.19191 1.39646,-2.94101 1.84081,-3.8869 1.19199,-2.5374 4.27187,-7.33821 5.73372,-8.93754 0.70227,-0.76831 1.50772,-1.78034 1.7899,-2.24896 0.28218,-0.46862 1.09431,-1.46999 1.80473,-2.22526 0.71043,-0.75528 1.29169,-1.56591 1.29169,-1.80141 0,-0.23551 -0.36107,-1.85839 -0.80238,-3.60641 -0.78208,-3.097803 -0.79338,-3.231346 -0.44662,-5.278229 0.41325,-2.439332 0.53369,-2.39068 -2.39813,-0.968701 -1.92636,0.934316 -3.85871,2.544702 -4.46856,3.724024 -0.52803,1.021086 -3.04576,3.701646 -4.42602,4.712266 l -1.03233,0.75587 -1.67058,-0.93424 c -0.91881,-0.51383 -3.14533,-1.40571 -4.9478,-1.98195 -3.88696,-1.24263 -5.865121,-2.11324 -6.872611,-3.024695 -0.46261,-0.418508 -1.18753,-1.777556 -1.93827,-3.633754 -0.6596,-1.630862 -1.37585,-3.306654 -1.59165,-3.723981 -0.84146,-1.627198 -2.65881,-4.107582 -3.64177,-4.970434 l -1.03152,-0.90547 0.16113,1.186421 c 0.0886,0.652531 0.29157,2.377046 0.45099,3.832254 0.15943,1.455208 0.39695,3.003021 0.52782,3.439583 0.13087,0.436563 0.36047,1.56735 0.51022,2.512862 0.14975,0.945513 0.5307,2.355842 0.84655,3.134069 0.71037,1.750215 0.34134,2.194645 -0.87715,1.056415 -0.86654,-0.809476 -1.8233,-1.166114 -2.46635,-0.91935 -0.29704,0.113983 -0.39456,0.57245 -0.38594,1.81447 0.0245,3.53257 0.80835,5.10539 2.84914,5.71682 1.10186,0.33013 2.43902,1.77823 3.88337,4.20556 0.99087,1.66523 1.56253,3.94839 1.8403,7.34998 0.0951,1.16417 0.36309,3.40291 0.59562,4.97499 0.29774,2.01299 0.33985,2.94125 0.14238,3.13872 -0.51862,0.51862 -0.77707,-0.0161 -0.94426,-1.95377 -0.366,-4.24168 -0.94557,-9.14161 -1.22849,-10.38614 -0.61028,-2.6846 -3.18085,-6.16581 -4.94724,-6.69982 -1.26087,-0.38119 -2.47886,-1.8589 -2.747,-3.33277 -0.10877,-0.59787 -0.27554,-2.87298 -0.37059,-5.055785 -0.095,-2.182813 -0.23184,-4.281237 -0.30398,-4.663165 -0.11305,-0.598517 0.0325,-0.790313 1.05375,-1.388819 0.6517,-0.381921 1.22747,-0.902873 1.27948,-1.157669 0.052,-0.254796 -0.10446,-1.994556 -0.34774,-3.866137 -0.42071,-3.236687 -0.91106,-4.639252 -1.66446,-4.760965 -0.1302,-0.02103 -0.61832,0.868973 -1.08471,1.977795 -0.46639,1.108823 -1.16114,2.42661 -1.54389,2.928416 -0.38274,0.501809 -1.2355,2.487718 -1.895,4.413134 -0.65951,1.925418 -1.49534,4.229798 -1.8574,5.120846 -0.61785,1.520531 -0.6583,1.915859 -0.6583,6.433149 0,4.50172 0.27028,7.37807 0.73717,7.84496 0.16215,0.16215 2.90927,-2.93612 4.4368,-5.00395 0.26938,-0.36466 0.41817,-0.39877 0.66748,-0.15301 0.2504,0.24682 -0.19863,0.94386 -2.04533,3.175 -2.60033,3.14166 -3.43,4.81368 -4.16666,8.39706 -0.2373,1.1543 -0.46613,2.13342 -0.50852,2.1758 -0.0424,0.0424 -0.49547,-0.20724 -1.00685,-0.55473 -0.78271,-0.53187 -1.01724,-0.93883 -1.48264,-2.57268 -0.48945,-1.71833 -0.5284,-2.28977 -0.33967,-4.98358 0.28566,-4.0773 1.55412,-9.61114 3.20823,-13.996371 0.74653,-1.979131 1.80884,-4.931034 2.3607,-6.559791 0.55186,-1.628754 1.3649,-3.486824 1.80676,-4.129045 0.78314,-1.138267 2.23909,-4.15684 2.08114,-4.314788 -0.0435,-0.04349 -1.32496,0.998538 -2.8477,2.31562 -1.52274,1.31708 -3.18939,2.699123 -3.70366,3.071207 -0.51427,0.372081 -1.34771,1.275101 -1.85208,2.006711 -0.50438,0.731607 -1.75584,2.231184 -2.78104,3.33239 -1.02519,1.101207 -2.44423,2.943537 -3.15342,4.094065 -0.70919,1.150527 -1.79295,2.658802 -2.40835,3.351702 -0.61541,0.69292 -1.37241,1.93737 -1.68224,2.76545 -0.30982,0.82808 -0.90152,1.99871 -1.31488,2.60141 -1.288,1.87796 -2.37465,4.27841 -2.55615,5.64664 -0.23751,1.79046 0.37623,2.9157 2.89561,5.30887 1.63945,1.55731 2.55702,2.16696 5.07993,3.37518 1.6935,0.81101 3.66083,1.58489 4.37185,1.71973 1.3807,0.26185 2.8806,0.92831 2.8806,1.27996 0,0.46195 -0.36266,0.52956 -1.02573,0.19122 -0.38174,-0.19478 -1.2913,-0.48046 -2.02126,-0.63484 -1.73326,-0.36658 -6.76507,-2.72337 -8.15417,-3.81924 -1.91413,-1.51005 -3.64221,-3.46283 -4.38949,-4.96025 -0.68502,-1.37265 -0.70874,-1.53777 -0.41811,-2.91042 0.32742,-1.54638 0.9265,-2.85829 2.47684,-5.42395 0.75414,-1.24804 2.14686,-4.19957 2.15361,-4.56407 6.6e-4,-0.0364 -0.74292,-0.0622 -1.65242,-0.0575 -3.12011,0.0163 -5.05722,0.41619 -7.45126,1.53808 l -2.30075,1.07816 -2.96227,-0.15598 -2.96228,-0.15599 -1.65609,0.97431 c -0.91085,0.53587 -1.77599,0.90021 -1.92254,0.80963 -0.42621,-0.26341 -0.0808,-0.58351 1.80583,-1.67344 l 1.7728,-1.02417 2.90253,0.20135 c 2.69732,0.18711 2.98727,0.15946 4.10104,-0.39118 3.25012,-1.60683 5.45341,-2.09539 9.14583,-2.02803 1.77645,0.0324 1.89995,-0.006 2.69055,-0.83048 0.45574,-0.47545 1.45229,-1.876481 2.21453,-3.113408 0.76225,-1.236927 2.02369,-2.878156 2.8032,-3.647178 0.7795,-0.76902 1.95302,-2.138238 2.60781,-3.042709 0.65479,-0.904467 2.05214,-2.336157 3.10523,-3.18153 1.05308,-0.845373 3.00933,-2.502469 4.34721,-3.682436 l 2.43252,-2.145398 -0.61373,-1.080061 c -0.87484,-1.539552 -1.31558,-3.5883 -2.00808,-9.334405 -0.39996,-3.318724 -0.45397,-3.399938 -2.69406,-4.051059 -1.06173,-0.308613 -2.10901,-0.61299 -2.32729,-0.676394 -0.3885,-0.112853 -1.90568,-2.32237 -2.75081,-4.006096 -0.23419,-0.466569 -1.08707,-2.788288 -1.8953,-5.159376 -1.43716,-4.216185 -1.47292,-4.392869 -1.62496,-8.027826 -0.19997,-4.780529 0.18166,-7.537096 1.37019,-9.897192 0.48203,-0.957202 1.19171,-2.810018 1.57706,-4.117375 1.25716,-4.265141 2.69067,-8.462296 4.09793,-11.998242 0.7453,-1.87269 2.86584,-4.27389 4.58959,-5.19705 0.76075,-0.40742 1.99682,-1.25777 2.74683,-1.88968 1.81577,-1.52984 7.24842,-5.1208 9.22494,-6.09765 1.41083,-0.6972703 1.72121,-0.7571903 2.86513,-0.5531903 1.152521,0.2055303 1.421401,0.1513703 2.645831,-0.53301 2.00039,-1.11808 9.36279,-2.5211 12.90154,-2.45858 3.31291,0.0585 10.03661,1.41424 13.02163,2.62557 1.4299,0.5802503 2.63117,1.0955603 2.6695,1.1451203 0.0383,0.0496 0.57376,0.76731 1.18984,1.595 0.61609,0.82768 1.76219,2.03343 2.54689,2.67943 0.7847,0.64601 1.82311,1.69522 2.30757,2.33159 0.48446,0.63636 1.25073,1.39514 1.70281,1.68618 0.56947,0.36662 1.03881,1.05747 1.52786,2.24896 0.38825,0.94589 0.97425,2.13651 1.30223,2.64583 0.32798,0.50933 1.14573,1.776627 1.81721,2.816222 0.82012,1.269712 1.53272,2.880286 2.17086,4.906439 0.6047,1.920007 1.43609,3.829412 2.28751,5.253575 2.372,3.967649 2.37664,3.980944 2.38034,6.815465 0.004,3.356962 -0.42876,7.00009 -1.08074,9.090026 -0.28785,0.92271 -0.66233,2.630154 -0.83217,3.794321 -0.26849,1.840354 -0.45352,2.306632 -1.41741,3.571875 -2.3554,3.091796 -4.31262,6.288773 -4.85941,7.9375 -0.50469,1.521772 -0.71485,1.811062 -1.82526,2.512473 -2.5695,1.623057 -4.18149,3.18245 -4.68842,4.535418 -0.26511,0.707568 -0.92654,2.06039 -1.46985,3.006276 -0.54331,0.945885 -1.29486,2.330389 -1.6701,3.076673 l -0.68225,1.356878 1.24492,0.778743 c 0.6847,0.42831 2.53111,1.901307 4.10312,3.27333 1.57201,1.372021 3.41748,2.887753 4.10104,3.368289 1.41408,0.994084 1.37002,0.993859 7.40015,0.0379 4.11304,-0.652041 6.22978,-0.64879 9.45353,0.01453 3.21533,0.66158 5.87226,2.187562 9.76293,5.607249 5.78681,5.086293 6.81814,6.401913 7.30303,9.316203 0.12339,0.74158 0.41182,1.79099 0.64096,2.33202 0.22914,0.54103 0.41037,1.25541 0.40274,1.5875 l -0.0139,0.60381 -0.44914,-0.63744 c -0.65153,-0.92469 -1.34331,-2.69562 -1.36041,-3.48261 -0.0506,-2.33128 -1.51191,-4.2167 -7.02624,-9.06569 -3.85654,-3.391236 -6.32711,-4.80939 -9.52458,-5.467292 -3.20731,-0.659932 -5.02289,-0.66321 -8.78259,-0.01585 -1.62874,0.28044 -3.77996,0.590556 -4.78049,0.689145 -1.7193,0.169415 -1.90174,0.132643 -3.32395,-0.670007 -0.82765,-0.467096 -1.59584,-1.011912 -1.70709,-1.210704 -0.48569,-0.86786 -7.13597,-6.201008 -7.73249,-6.201008 -0.0957,0 -0.45992,0.625078 -0.80938,1.389062 -0.35049,0.766215 -1.42606,2.219524 -2.39873,3.241146 -1.58112,1.660705 -1.81999,2.057133 -2.31168,3.836458 -0.3016,1.091407 -0.72192,2.993996 -0.93404,4.227979 -0.37377,2.174227 -0.36509,2.32909 0.28056,5.008261 0.36643,1.52056 0.77386,3.04771 0.90539,3.39366 0.29525,0.77656 -0.16035,1.7327 -1.35718,2.84822 -0.46838,0.43656 -1.26621,1.44859 -1.77297,2.24896 -0.50675,0.80036 -1.41408,1.93825 -2.01629,2.52863 -1.34402,1.31764 -5.20892,7.60675 -6.37929,10.38062 -0.47333,1.12184 -1.11509,2.51419 -1.42614,3.09412 -0.31104,0.57993 -0.56553,1.20501 -0.56553,1.38906 0,0.18406 -0.17859,0.33465 -0.39688,0.33465 -0.21828,0 -0.39687,-0.18566 -0.39687,-0.41258 z m 1.37536,-30.780775 c 0.80201,-0.275932 2.57682,-1.184151 3.94403,-2.018263 1.3672,-0.834115 3.08114,-1.878894 3.80874,-2.321735 0.7276,-0.442841 1.83853,-1.409856 2.46873,-2.148925 1.44701,-1.697006 4.18256,-5.80817 5.46848,-8.218413 1.29861,-2.434024 2.04478,-3.482288 4.60304,-6.4666 1.50144,-1.751481 2.18709,-2.774881 2.30442,-3.439583 0.18558,-1.051245 0.66367,-2.26459 1.51965,-3.856662 0.52201,-0.970902 0.56689,-1.429917 0.54328,-5.55625 -0.0233,-4.070028 -0.11548,-4.931273 -0.96911,-9.053288 -0.90885,-4.38866 -0.98345,-4.602901 -2.03843,-5.854049 l -1.09506,-1.298676 -2.91108,1.025401 c -2.35103,0.82813 -3.2794,1.025403 -4.82556,1.025403 -1.05296,0 -2.62218,0.184335 -3.48716,0.409633 -0.86498,0.225298 -1.60631,0.314595 -1.64739,0.198438 -0.2619,-0.740461 -0.59333,-0.899531 -1.71405,-0.822661 l -1.19988,0.0823 0.6429,1.852084 c 0.43211,1.244817 0.69392,2.719607 0.79849,4.497916 0.10933,1.859347 0.31082,2.954613 0.67786,3.684607 0.61927,1.231667 1.04762,3.871626 0.6897,4.250682 -0.36305,0.38449 -0.74552,-0.35314 -0.75341,-1.452997 -0.004,-0.509323 -0.28347,-1.521354 -0.62183,-2.248958 -0.33836,-0.727604 -0.69609,-1.830777 -0.79495,-2.451494 -0.18036,-1.132409 -0.95674,-3.334436 -1.11858,-3.172593 -0.241,0.240999 -1.20227,9.146495 -1.10212,10.210306 0.0639,0.679037 0.38736,1.948989 0.71872,2.822114 0.33137,0.873125 0.66128,2.366201 0.73314,3.317947 0.13058,1.729407 0.13009,1.730878 -0.80932,2.447396 -1.0647,0.812085 -1.66297,0.894937 -2.29992,0.318505 -0.24216,-0.219146 -1.35286,-0.543644 -2.46823,-0.721106 -1.11538,-0.177464 -2.02796,-0.414882 -2.02796,-0.527597 0,-0.112716 -0.34943,-0.204936 -0.77652,-0.204936 -0.42709,0 -1.10132,-0.123486 -1.49829,-0.274415 -0.93394,-0.355082 -0.54342,-0.775661 0.89998,-0.969262 0.8142,-0.109207 1.25102,-0.01503 1.82452,0.393327 0.41471,0.295299 1.45569,0.666621 2.3133,0.825159 0.85761,0.158538 1.78437,0.491948 2.05947,0.74091 0.61077,0.552736 1.21787,0.258852 1.76303,-0.853435 0.30192,-0.616024 0.31138,-1.056383 0.0528,-2.459641 -0.17322,-0.940101 -0.54708,-2.164291 -0.83079,-2.720419 -0.33434,-0.655346 -0.51663,-1.550178 -0.51805,-2.543038 -0.003,-2.236697 1.01797,-10.47088 1.58454,-12.776687 0.26818,-1.091406 0.43808,-2.034484 0.37756,-2.095727 -0.0605,-0.06124 -2.02766,-0.166616 -4.37143,-0.234164 -4.25614,-0.122664 -4.26117,-0.122119 -4.0821,0.442079 0.23701,0.746768 -0.51838,0.776271 -0.91471,0.03573 -0.17407,-0.325255 -0.55399,-0.529167 -0.98592,-0.529167 -0.64396,0 -0.6631,-0.02896 -0.22899,-0.346395 0.44043,-0.322053 0.4068,-0.405148 -0.4786,-1.182539 -0.52378,-0.459883 -0.95232,-0.95885 -0.95232,-1.108816 0,-0.520195 0.71086,-0.268105 1.73124,0.613936 l 1.02564,0.886603 1.1007,-0.486889 c 0.60538,-0.26779 2.48175,-0.719383 4.16971,-1.003538 2.7636,-0.465232 3.23365,-0.628449 4.72335,-1.640083 2.34023,-1.589223 2.85978,-2.218063 2.85978,-3.461385 v -1.037254 l -1.52136,1.181719 c -1.29861,1.008703 -1.81026,1.229188 -3.49463,1.505953 -1.0853,0.178332 -2.60284,0.540837 -3.3723,0.805569 -0.76946,0.264734 -2.35641,0.621323 -3.52655,0.792422 l -2.12754,0.311086 1.33265,0.617424 c 0.73295,0.339585 1.33264,0.722122 1.33264,0.850085 0,0.520896 -0.38062,0.536993 -1.32349,0.05597 -0.54637,-0.278734 -1.78178,-0.704827 -2.74537,-0.946873 -0.96358,-0.242043 -1.75197,-0.544668 -1.75197,-0.672497 0,-0.12783 -0.88626,-0.232418 -1.96947,-0.232418 -1.853901,0 -2.163321,0.09163 -5.273431,1.56159 -4.3447,2.053474 -9.2446,5.724874 -10.87821,8.150818 -0.79166,1.175639 -0.86648,1.479375 -1.02919,4.178218 -0.43127,7.153185 -0.46728,8.813184 -0.21807,10.054167 0.5684,2.830481 0.82296,4.31737 1.10976,6.482292 0.83711,6.318853 1.55658,7.856424 5.69627,12.173521 1.32705,1.383927 2.63021,2.847994 2.89589,3.253481 0.67436,1.029195 5.71627,5.335916 7.082121,6.049442 1.3399,0.699965 6.54709,1.752653 8.82676,1.784421 0.95021,0.01323 2.211,-0.183539 3.07043,-0.479226 z m -4.03139,-7.129466 c -2.49025,-1.325319 -5.01688,-3.040205 -5.01688,-3.405087 0,-0.562435 1.73117,-0.274124 3.56599,0.593887 1.07567,0.50887 1.80685,0.652777 3.31673,0.652777 1.70681,0 2.13198,-0.107244 3.57946,-0.902875 1.00302,-0.551331 2.21433,-0.974312 3.11102,-1.086345 1.02774,-0.12841 1.63998,-0.366069 2.04004,-0.791905 0.55242,-0.588032 0.55457,-0.613839 0.0641,-0.769496 -0.2791,-0.08858 -1.19502,-0.575088 -2.03538,-1.081125 -1.44393,-0.869489 -1.65362,-0.918768 -3.81465,-0.896448 -1.2577,0.01299 -3.1797,-0.166502 -4.27111,-0.398875 -2.91504,-0.620649 -7.87462,-0.519872 -6.83539,0.13889 0.19421,0.123106 1.36513,0.225669 2.60206,0.227923 1.23692,0.0024 3.18216,0.182671 4.32275,0.400926 1.14059,0.218257 2.867,0.398454 3.83646,0.400441 2.09931,0.0043 2.9606,0.198636 2.79484,0.630595 -0.1671,0.435459 -4.12028,0.306501 -6.85301,-0.223554 -1.16417,-0.225809 -3.0656,-0.410581 -4.2254,-0.410607 -1.47959,-3.2e-5 -2.64317,-0.177657 -3.90004,-0.595358 -2.978801,-0.989959 -2.584451,-1.179322 3.62752,-1.741863 1.60971,-0.145772 2.65531,-0.07858 4.36563,0.280559 1.34167,0.281726 3.22766,0.458192 4.67494,0.437417 2.1018,-0.03017 2.53419,0.04222 3.23565,0.541705 0.44531,0.317088 1.5951,0.932665 2.5551,1.367949 l 1.74544,0.791422 -1.00393,1.112708 c -0.7904,0.876046 -1.28709,1.171617 -2.33525,1.389681 -1.66323,0.346025 -2.30025,0.686277 -4.0398,2.157775 -2.01761,1.706708 -3.48059,2.044425 -5.10694,1.178883 z m 13.60904,-8.289779 c -1.98557,-1.873624 -3.71018,-4.393473 -3.29088,-4.80835 0.23327,-0.230812 0.37306,-0.190347 0.57422,0.166224 0.75119,1.331524 2.87522,3.839433 3.8509,4.546857 0.60887,0.441465 1.07767,0.914286 1.04179,1.050713 -0.16418,0.624277 -0.79585,0.346925 -2.17603,-0.955444 z m -8.77019,-3.316473 c -0.1819,-0.0667 -0.33364,-0.498301 -0.3372,-0.959115 -0.003,-0.460817 -0.12763,-1.363504 -0.27572,-2.005973 -0.20571,-0.892432 -0.19038,-1.216874 0.0649,-1.374677 0.18381,-0.113602 0.36982,-0.170939 0.41334,-0.127413 0.0435,0.04353 0.25748,1.011225 0.47544,2.150438 0.38987,2.037663 0.31352,2.556664 -0.34082,2.31674 z m 15.93026,-3.798941 c -0.21914,-0.354586 -0.27378,-0.312944 1.50389,-1.146233 1.63746,-0.76757 3.32446,-2.420377 4.17787,-4.0932 0.65533,-1.284552 1.33123,-4.011284 1.33667,-5.392443 0.003,-0.703819 0.11926,-0.992188 0.40079,-0.992188 0.90446,0 0.1579,4.597091 -1.13149,6.967339 -0.97679,1.795598 -2.68079,3.440959 -4.41155,4.259742 -1.6399,0.775792 -1.64181,0.776197 -1.87618,0.396983 z m -23.75549,-3.195259 c -0.38681,-0.603017 -0.53332,-1.371428 -0.47229,-2.477087 0.0467,-0.84662 1.88048,-3.554204 2.29849,-3.393795 0.30134,0.115633 0.29036,0.282215 -0.0642,0.973603 -0.23525,0.458753 -0.64903,1.118047 -0.9195,1.465093 -0.54692,0.701781 -0.64578,2.158701 -0.20266,2.986681 0.44338,0.828466 -0.1356,1.231593 -0.63984,0.445505 z m -0.70166,-7.304326 c 0.006,-0.195035 0.59248,-1.363181 2.45292,-4.884264 0.51594,-0.976474 1.08569,-2.434989 1.26609,-3.241146 0.1983,-0.886089 0.46832,-1.465736 0.68279,-1.465736 0.19513,0 0.35477,0.225584 0.35477,0.501296 0,1.036798 -1.08411,3.929806 -2.14214,5.716413 -0.60324,1.018645 -1.26261,2.239036 -1.46525,2.711979 -0.31834,0.742945 -1.16619,1.230961 -1.14918,0.661458 z m 18.96571,-2.116667 c -1.63808,-1.117282 -2.98097,-2.588712 -2.58559,-2.833071 0.14307,-0.08842 0.91989,0.211588 1.72627,0.666682 1.01085,0.570486 1.95925,0.872156 3.054,0.971425 1.2261,0.111178 1.58711,0.241097 1.58458,0.570254 -0.003,0.403683 -1.56605,1.616898 -2.08299,1.616898 -0.13288,0 -0.89621,-0.446484 -1.69627,-0.992188 z m 5.90579,-3.800588 c -0.36018,-0.143727 -1.78432,-0.315598 -3.16476,-0.38194 -2.93673,-0.141134 -4.14606,-0.738267 -5.03869,-2.487956 -0.6379,-1.250397 -0.6678,-1.597745 -0.13752,-1.597745 0.21828,0 0.39688,-0.178594 0.39688,-0.396875 0,-0.86392 5.55623,-0.15154 7.81852,1.002432 1.55212,0.791721 2.89338,2.117363 2.68685,2.655565 -0.0807,0.210262 0.0297,0.63409 0.24522,0.941837 0.38306,0.546905 0.36319,0.559163 -0.87986,0.542769 -0.69947,-0.0092 -1.56647,-0.134363 -1.92664,-0.278087 z m 1.25555,-0.81352 c -0.2006,-0.60179 -1.4683,-1.32778 -3.146,-1.801664 -0.92841,-0.262237 -1.91023,-0.566249 -2.18182,-0.67558 -0.43371,-0.174593 -0.45786,-0.131627 -0.19843,0.353111 0.16245,0.30354 0.29582,0.827608 0.29638,1.164598 10e-4,0.575037 0.11076,0.615727 1.78594,0.661836 0.9817,0.02702 2.08257,0.168304 2.44637,0.313958 0.89681,0.359055 1.12144,0.355393 0.99756,-0.01627 z m -8.2736,-2.595788 c 0.0899,-0.14552 -0.0887,-0.264583 -0.39687,-0.264583 -0.30822,0 -0.48682,0.119063 -0.39688,0.264583 0.0899,0.145521 0.26853,0.264584 0.39688,0.264584 0.12834,0 0.30693,-0.119063 0.39687,-0.264584 z m 5.55586,-0.127801 c -0.43678,-0.192072 -1.38928,-0.417465 -2.11667,-0.500875 -1.21044,-0.138803 -1.17853,-0.118486 0.37643,0.23972 0.93443,0.215257 1.75794,0.450364 1.83004,0.52246 0.0721,0.07209 0.26006,0.121367 0.41771,0.109498 0.15765,-0.01188 -0.0707,-0.178734 -0.50751,-0.370803 z m -28.391411,2.320327 c -1.04174,-0.199044 -0.48221,-0.72136 1.158821,-1.081773 0.86262,-0.189452 2.31986,-0.697968 3.23832,-1.130035 1.53927,-0.724117 2.16654,-0.802251 2.16654,-0.26987 0,0.114832 -0.4937,0.431411 -1.0971,0.703508 -0.60341,0.272098 -1.22849,0.622121 -1.38907,0.777825 -0.92681,0.898689 -2.53923,1.294268 -4.077511,1.000345 z m 0.742841,-2.721563 c -0.21828,-0.140993 -1.527961,-0.630891 -2.910411,-1.088657 -3.81103,-1.261943 -4.11751,-1.753976 -1.85839,-2.983539 1.56257,-0.850459 4.889101,-1.339565 7.521501,-1.105898 2.07351,0.184057 4.38305,1.058471 3.9471,1.494414 -0.1659,0.165899 -0.19699,0.691029 -0.0791,1.335755 0.22245,1.216488 0.27289,1.181594 -3.03188,2.097394 -2.05715,0.570063 -2.99299,0.635394 -3.58882,0.250531 z m 4.41741,-1.363355 c 0.47862,-0.144815 0.79257,-0.392507 0.72346,-0.570783 -0.20918,-0.5397 -1.70232,-1.240991 -2.64222,-1.240991 -0.86061,0 -0.88701,0.02903 -0.63328,0.696404 0.14563,0.383024 0.19465,0.91734 0.10895,1.187371 -0.13621,0.429165 -0.0455,0.471633 0.72086,0.337399 0.48218,-0.08446 1.25719,-0.26869 1.72223,-0.4094 z m -6.004901,-0.734542 c 0,-0.280649 0.1871,-0.697367 0.41578,-0.926041 0.37797,-0.377976 0.23847,-0.415775 -1.53459,-0.415775 -2.76223,0 -3.12393,0.473581 -0.9413,1.232472 2.08337,0.724373 2.06011,0.723138 2.06011,0.109344 z m 5.027081,-2.14907 c -1.72535,-0.307001 -3.23665,-0.300294 -3.04271,0.01349 0.0899,0.145521 1.07923,0.249682 2.19842,0.231465 1.8823,-0.03063 1.94562,-0.049 0.84429,-0.24497 z m 16.31597,2.482948 c -0.36827,-0.368266 -0.13662,-0.6286 1.13083,-1.270865 2.60306,-1.319073 7.86667,-2.320084 8.13928,-1.547897 0.0704,0.199384 -0.34952,0.369345 -1.16242,0.470495 -2.08145,0.259 -6.40086,1.497962 -7.07725,2.030013 -0.69712,0.548357 -0.77598,0.572712 -1.03044,0.318254 z m -37.445261,13.207736 c -0.0522,-1.273646 0.0565,-3.834194 0.24159,-5.690103 0.18508,-1.855909 0.27942,-3.431474 0.20964,-3.501253 -0.0698,-0.06978 -0.61459,0.793851 -1.2107,1.919174 -1.43876,2.716072 -1.88858,5.408737 -1.26302,7.56058 0.39828,1.370034 0.8439,1.820299 1.98512,2.00582 0.0728,0.01183 0.0896,-1.02057 0.0374,-2.294218 z m 46.904091,53.343352 c -0.26262,-0.42493 1.22792,-1.63755 3.37072,-2.74222 1.4535,-0.74932 1.78788,-0.83824 1.91419,-0.50907 0.10955,0.28547 -0.2006,0.55044 -1.09104,0.93213 -0.68425,0.2933 -1.72423,0.92179 -2.31107,1.39664 -1.45587,1.17803 -1.66236,1.2792 -1.8828,0.92252 z"
           id="path1904"
           inkscape:connector-curvature="0" />
      </g>
    </g>
  </g>
</svg>
