<?xml version="1.0" encoding="UTF-8"?>
<!-- Created with Inkscape (http://www.inkscape.org/) -->
<svg width="768" height="512" version="1.1" viewBox="0 0 203.2 135.47" xmlns="http://www.w3.org/2000/svg" xmlns:cc="http://creativecommons.org/ns#" xmlns:dc="http://purl.org/dc/elements/1.1/" xmlns:rdf="http://www.w3.org/1999/02/22-rdf-syntax-ns#">
 <title>王师傅专通下水</title>
 <metadata>
  <rdf:RDF>
   <cc:Work rdf:about="">
    <dc:format>image/svg+xml</dc:format>
    <dc:type rdf:resource="http://purl.org/dc/dcmitype/StillImage"/>
    <dc:title>王师傅专通下水</dc:title>
   </cc:Work>
  </rdf:RDF>
 </metadata>
 <g transform="translate(0 -161.53)">
  <rect x="2.7759e-6" y="161.53" width="203.2" height="135.47" fill="none" stroke="#f00" stroke-linecap="square" stroke-miterlimit="5" stroke-width="7.9375"/>
  <rect x="5.08" y="164.92" width="193.04" height="128.69" fill="none"/>
  <g fill="#f00">
   <g transform="matrix(.26458 0 0 .26458 -13.733 143.75)" aria-label="王师傅">
    <path d="m162.46 204.8v-36h46.88v-22.88h-46.88v-31.36h53.44v-22.88h-131.2v22.88h53.12v31.36h-45.28v22.88h45.28v36h-60.8v22.88h147.04v-22.88z"/>
    <path d="m100.54 261.28h-20.64v78.56h20.64zm6.4 45.12c0 27.2-2.56 53.6-24.8 72.32 5.28 3.2 13.6 10.72 17.44 15.36 25.6-22.4 28.64-55.2 28.64-87.52v-63.36h-21.28zm116.8-36v-20.96h-92.32v20.96h34.88v11.36h-31.52v89.28h20.96v-68.64h10.56v91.68h21.76v-91.68h11.68v47.04c0 1.6-0.48 2.08-1.92 2.08-1.28 0-5.28 0-8.64-0.16 2.56 5.28 5.28 13.92 5.92 19.84 8 0 14.24-0.32 19.52-3.68s6.56-8.8 6.56-17.6v-68.16h-33.12v-11.36z"/>
    <path d="m185.02 533.28c0 1.92-0.8 2.4-3.04 2.56-1.76 0-8.16 0-13.76-0.16-4-5.12-10.72-12.16-16.32-17.92h33.12zm-1.92-59.68v-4.32h12.64v4.32zm-34.56 0v-4.32h12.48v4.32zm12.48-21.6v4.16h-12.48v-4.16zm34.72 0v4.16h-12.64v-4.16zm30.56 47.84h-18.88v-4.64h10.72v-57.6h-35.04v-4.16h41.76v-17.76h-13.6l5.44-4.8c-4-2.88-11.36-7.2-16.64-9.92l-12.48 10.24c2.08 1.28 4.48 2.88 6.88 4.48h-11.36v-13.12h-22.08v13.12h-35.52c0.8-1.92 1.6-3.68 2.24-5.6l-21.92-6.88c-7.68 22.08-20.96 44.16-34.72 58.08 3.84 5.76 10.08 18.72 12.16 24.48 2.56-2.88 5.28-5.92 7.84-9.12v77.76h22.08v-112.16c3.36-6.24 6.4-12.8 9.28-19.2v10.4h38.56v4.16h-33.92v58.08h21.44v-8.96h12.48v4.48h22.08v-4.48h12.64v4.96h-10.72v8.16h-65.44v17.92h24.16l-12.16 7.04c6.08 7.04 14.72 16.96 18.56 22.72l16.48-10.08c2.24 5.28 4.64 12.16 5.28 17.28 11.2 0 20-0.16 26.72-2.88 7.04-3.04 8.8-8 8.8-17.76v-16.32h18.88z"/>
   </g>
   <g transform="matrix(.26458 0 0 .26458 -18.205 144.13)" aria-label="专通下水 上门维修 电话： 138-9575-8970">
    <path d="m412.67 149.12v-18.533h-64.667l2.1333-8.8h52.933v-18.4h-48.533c0.8-3.6 1.6-7.3333 2.4-10.8h-20.8c-0.66667 3.4667-1.4667 7.0667-2.2667 10.8h-30.533v18.4h26.267c-0.66666 2.9333-1.4667 5.8667-2.1333 8.8h-35.467v18.533h30.4c-2.8 10-5.7333 19.2-8.4 27.067h57.6c-4.2667 4.4-8.9333 8.9333-13.6 13.333-10.533-3.2-21.2-5.8667-30-7.7333l-10.267 14.667c21.867 5.3333 52 16 66.4 24l11.2-16.933c-4.5333-2.2667-10.4-4.6667-16.8-7.0667 10.4-10.4 21.067-21.2 29.867-30.667l-14.933-8.5333-3.2 0.93333h-49.467l2.4-9.0667z"/>
    <path d="m496.54 139.78v4.6667h-11.333v-4.6667zm15.467-28.933c-2.2667 1.7333-4.6667 3.4667-7.0667 5.0667-4.4-1.8667-8.9333-3.6-12.933-5.0667zm1.7333 33.6v-4.6667h11.6v4.6667zm0 18.133v-4.9333h11.6v4.9333zm-28.533 0v-4.9333h11.333v4.9333zm0 13.733h11.333v18.267h17.2v-18.267h11.6v2.5333c0 1.3333-0.4 1.8667-1.8667 1.8667-1.2 0-5.3333 0-8.4-0.13334 2 4.1333 4 10.4 4.6667 15.067 7.4667 0 13.467-0.13333 18-2.6667 4.8-2.5333 6-6.4 6-13.867v-53.067h-18l0.26667-0.26667c-1.6-0.93333-3.4667-1.8667-5.4667-2.9333 8.2667-5.4667 16.267-12 22.667-18.133l-11.333-9.2-3.7333 0.93333h-59.2v14.4h18.267l-10.933 8.9333c4.5333 1.7333 9.6 4 14.667 6.2667h-23.867v69.067h18.133zm-23.733-57.867c-5.3333-6-16.8-15.2-24.533-21.333l-13.067 11.733c7.8667 6.9333 18.8 16.667 23.733 22.933zm-4.4 25.733h-34.267v17.867h15.733v28.267c-5.6 2.6667-11.6 7.0667-17.067 12.267l11.6 16.533c5.2-7.6 11.6-15.867 15.6-15.867 2.8 0 6.9333 3.8667 12.4 6.9333 9.2 5.0667 20 6.5333 36.667 6.5333 14.267 0 35.867-0.8 46.8-1.4667 0.26667-4.8 3.0667-13.6 5.0667-18.4-14 2.1333-37.467 3.4667-51.2 3.4667-14.4 0-26.667-0.66667-35.2-5.7333-2.4-1.3333-4.4-2.6667-6.1333-3.8667z"/>
    <path d="m679.34 121.92v-19.6h-120.13v19.6h46.667v96.933h20.933v-59.867c12.533 7.4667 26.4 16.533 33.333 23.2l14.533-17.867c-10-8.4-30.8-19.733-44.533-26.667l-3.3333 3.8667v-19.6z"/>
    <path d="m728.41 123.78-3.4667 0.66666h-32.4v19.6h25.467c-5.4667 21.733-16 39.067-30.533 49.2 4.6667 2.9333 12.533 10.533 15.733 14.933 18.667-14.4 32.4-42.667 38.133-79.733zm62.933-8.8c-5.7333 8-14.133 17.2-22.267 24.8-2-4.6667-3.8667-9.3333-5.4667-14.267v-32.933h-20.667v102.4c0 2.2667-0.93333 3.0667-3.2 3.0667-2.6667 0-10 0-17.2-0.4 3.0667 5.8667 6.4 15.733 7.2 21.733 11.2 0 19.867-0.93334 26-4.4 6-3.4667 7.8667-9.2 7.8667-19.867v-27.733c9.6 17.2 22.133 31.067 39.467 40.267 3.2-5.7333 9.8667-14 14.533-18.133-16.933-7.3333-30.133-19.333-39.867-34.133 9.6-7.3333 21.467-17.867 31.6-27.733z"/>
    <path d="m358.81 359.65v-42.533h45.867v-19.6h-45.867v-36.8h-20.933v98.933h-46.8v19.6h123.07v-19.6z"/>
    <path d="m428.94 385.65h19.867v-95.467h-19.867zm3.7333-117.6c6.8 8.2667 15.467 19.6 19.2 26.8l15.867-11.467c-4.1333-7.0667-13.467-17.733-20.267-25.333zm110.67-4.6667h-75.067v18.533h55.333v82.933c0 2.5333-0.93334 3.3333-3.4667 3.3333-2.5333 0.13334-11.6 0.13334-18.4-0.26666 2.6667 4.6667 5.6 12.933 6.4 18 12.267 0.13333 20.8-0.26667 26.933-3.2 6.1333-3.0667 8.2667-7.8667 8.2667-17.6z"/>
    <path d="m584.67 328.58c8.5333-10.667 16.533-22.8 22.8-34.667l-14.933-9.3333c-2.4 5.2-5.2 10.533-8 15.467l-8 0.53333c7.3333-10.267 14.267-22.533 19.067-34l-17.333-8.1333c-4.4 15.333-13.067 31.733-16 35.733-2.9333 4.2667-5.2 6.9333-8.1333 7.7333 2 4.8 4.9333 13.467 5.8667 16.933 2.1333-1.0667 5.2-1.8667 14.667-2.9333-3.4667 5.2-6.5333 9.2-8.2667 11.067-4.2667 4.9333-7.2 7.8667-10.933 8.8 2 4.4 4.8 12.533 5.6 15.867 4-2.2667 10.133-4 43.467-10.267-0.13334-3.8667 0-11.2 0.8-16.133zm-25.2 52.8c14.133-3.8667 32.4-8.6667 49.333-13.467l-2-16c-18.533 4.2667-38 8.8-50.8 11.067zm71.6-30.133h13.467v8.6667h-13.467zm4.2667-68.267c2.2667-5.3333 4.4-10.8 6.2667-16.133 2.6667 4.9333 5.6 11.067 7.3333 16.133zm9.2 25.867h-13.467v-8.5333h13.467zm0 25.2h-13.467v-8h13.467zm37.733 25.867h-19.733v-8.6667h15.2v-17.2h-15.2v-8h14.933v-17.2h-14.933v-8.5333h18.133v-17.333h-22.8l9.4667-4.4c-1.7333-5.2-5.6-12.933-9.4667-18.8l-16.267 6.8 0.66666-1.7333-18.533-5.3333c-3.8667 15.467-12.533 36.133-22.4 48.133 2.6667 4.6667 6.4 13.6 8 18.533 1.2-1.3333 2.4-2.8 3.6-4.2667v64.267h18.133v-8.4h51.2z"/>
    <path d="m712.67 259.52c-5.4667 18.933-14.933 37.867-25.2 50 2.9333 5.2 7.6 16.533 9.0667 21.333 1.7333-2 3.4667-4.1333 5.0667-6.4v61.333h18.4v-93.867c4.1333-8.9333 7.6-18.267 10.533-27.067zm74.267 27.867c-2.8 3.4667-6 6.6667-9.6 9.6-4-2.9333-7.4667-6.2667-10.267-9.6zm13.467-15.867-2.9333 0.66667h-24.4c1.3333-2.9333 2.5333-5.8667 3.6-8.8l-17.467-4.2667c-4.4 13.2-12.8 25.733-23.067 33.467 4.1333 2.4 11.2 8 14.4 11.067 2.1333-1.8667 4.1333-3.8667 6.1333-6.1333 2.1333 2.8 4.5333 5.4667 7.3333 8.1333-6.9333 3.4667-14.667 6.4-22.8 8.4v-16.4h-15.867v64.8h15.867v-41.733c2 2.9333 3.7333 6.2667 4.8 8.6667 11.467-3.0667 22.133-7.3333 31.6-13.067 8.2667 5.3333 18.133 9.6 29.467 12.267 2.2667-4.5333 7.0667-11.733 10.533-15.333-9.6-1.6-18.267-4.2667-25.6-7.6 8.4-7.7333 15.067-17.2 19.6-28.933zm-9.6 62.533c-8.6667 8.6667-26.133 14.8-42.667 17.867 3.3333 3.2 7.0667 8.4 9.0667 12 18.667-4.6667 36.4-12.4 47.333-24.267zm-13.2-12.667c-6.4 5.6-19.067 10.533-29.867 13.067 3.6 2.9333 7.7333 7.4667 10 10.933 12.4-3.8667 25.333-9.8667 33.867-18.267zm21.333 27.733c-11.2 12.133-33.733 18.667-57.333 21.733 3.7333 4 7.7333 10.4 9.7333 15.067 26.8-5.0667 49.867-13.467 64.133-30.133z"/>
    <path d="m326.26 466.4c-3.392 0-3.712-0.512-3.712-4.736v-1.6h16.64c-0.512 5.056-1.344 6.336-4.096 6.336zm-24.256-15.424v-4.096h10.496v4.096zm10.496-17.152v4.544h-10.496v-4.544zm20.352 13.056v4.096h-10.304v-4.096zm0-13.056v4.544h-10.304v-4.544zm9.536-9.088h-19.84v-8.704h-10.048v8.704h-20.096v38.912h9.6v-3.584h10.496v1.536c0 11.136 2.752 14.208 12.544 14.208h11.136c8.384 0 11.264-3.904 12.48-14.208-1.856-0.448-4.224-1.28-6.272-2.304z"/>
    <path d="m370.67 426.01c-2.304-2.816-7.168-6.976-10.624-9.856l-5.952 5.632c3.456 3.2 8.192 7.68 10.24 10.624zm-3.52 30.976v-21.952h-15.36v8.896h6.656v16.768c0 3.392-2.176 6.336-3.776 7.68 1.536 1.536 4.224 5.184 5.056 7.232 1.216-1.728 3.648-3.904 15.744-14.848-1.152-1.728-2.816-5.44-3.648-8zm32.704 8.832h-14.4v-6.272h14.4zm12.16-22.528v-8.768h-14.912v-8.768c4.544-0.704 8.96-1.536 12.928-2.56l-6.016-7.552c-7.936 2.176-19.904 3.776-30.848 4.544 0.96 1.984 2.112 5.44 2.432 7.616 3.904-0.192 8-0.512 12.16-0.896v7.616h-15.68v8.768h15.68v7.872h-11.648v25.152h9.344v-2.112h14.4v1.856h9.856v-24.896h-12.608v-7.872z"/>
    <path d="m429.87 440.8c3.84 0 6.784-2.944 6.784-6.656 0-3.84-2.944-6.784-6.784-6.784s-6.784 2.944-6.784 6.784c0 3.712 2.944 6.656 6.784 6.656zm0 30.08c3.84 0 6.784-2.944 6.784-6.656 0-3.84-2.944-6.784-6.784-6.784s-6.784 2.944-6.784 6.784c0 3.712 2.944 6.656 6.784 6.656z"/>
    <path d="m290.87 550.24h30.08v-9.216h-8.576v-38.4h-8.384c-3.328 2.048-6.656 3.328-11.776 4.288v7.04h8.768v27.072h-10.112z"/>
    <path d="m342.73 551.13c9.472 0 17.6-4.992 17.6-13.888 0-6.144-3.904-9.984-9.216-11.584v-0.32c5.12-2.048 7.68-5.76 7.68-10.496 0-8.512-6.464-13.12-16.32-13.12-5.632 0-10.368 2.176-14.784 5.888l5.76 6.976c2.88-2.496 5.312-3.968 8.512-3.968 3.52 0 5.44 1.792 5.44 5.056 0 3.776-2.56 6.272-10.688 6.272v8c9.984 0 12.16 2.432 12.16 6.528 0 3.584-2.88 5.44-7.296 5.44-3.712 0-7.04-1.856-9.92-4.608l-5.248 7.168c3.456 4.032 8.768 6.656 16.32 6.656z"/>
    <path d="m383.27 551.13c9.984 0 16.64-5.568 16.64-12.928 0-6.528-3.456-10.496-8-12.864v-0.32c3.264-2.24 6.016-6.016 6.016-10.56 0-7.744-5.696-12.736-14.272-12.736-8.832 0-15.104 4.928-15.104 12.864 0 5.056 2.496 8.704 6.208 11.456v0.32c-4.416 2.368-7.808 6.08-7.808 12.032 0 7.552 6.976 12.736 16.32 12.736zm2.88-28.864c-4.672-1.856-7.616-3.904-7.616-7.68 0-3.392 2.24-4.992 4.8-4.992 3.392 0 5.376 2.176 5.376 5.632 0 2.432-0.768 4.864-2.56 7.04zm-2.624 20.928c-3.712 0-6.848-2.24-6.848-6.144 0-3.008 1.28-5.888 3.2-7.744 5.824 2.496 9.472 4.288 9.472 8.448 0 3.776-2.56 5.44-5.824 5.44z"/>
    <path d="m406.07 535.71h18.112v-8h-18.112z"/>
    <path d="m445.93 524.83c-3.2 0-5.76-1.856-5.76-6.976 0-5.504 2.56-7.616 5.568-7.616 2.944 0 5.952 2.24 6.912 10.112-1.856 3.264-4.416 4.48-6.72 4.48zm-15.488 20.608c3.008 3.008 7.616 5.696 14.016 5.696 9.728 0 18.816-8 18.816-25.28s-8.768-24.128-17.792-24.128c-8.512 0-15.68 6.016-15.68 16.128 0 10.24 5.952 14.976 13.952 14.976 2.752 0 6.784-1.728 9.088-4.8-0.448 10.432-4.288 13.888-9.152 13.888-2.752 0-5.696-1.536-7.296-3.264z"/>
    <path d="m484.61 551.13c9.152 0 17.216-6.208 17.216-16.896 0-10.304-6.784-15.04-14.848-15.04-1.792 0-3.2 0.256-4.928 0.96l0.704-8.064h16.96v-9.472h-26.752l-1.216 23.552 4.992 3.264c2.816-1.792 4.096-2.304 6.72-2.304 4.096 0 6.976 2.56 6.976 7.36 0 4.928-2.88 7.424-7.488 7.424-3.776 0-7.104-1.984-9.792-4.544l-5.184 7.168c3.776 3.712 9.024 6.592 16.64 6.592z"/>
    <path d="m516.83 550.24h11.456c0.832-18.624 1.984-27.584 12.992-40.704v-6.912h-32.64v9.472h20.48c-8.96 12.416-11.392 22.464-12.288 38.144z"/>
    <path d="m562.61 551.13c9.152 0 17.216-6.208 17.216-16.896 0-10.304-6.784-15.04-14.848-15.04-1.792 0-3.2 0.256-4.928 0.96l0.704-8.064h16.96v-9.472h-26.752l-1.216 23.552 4.992 3.264c2.816-1.792 4.096-2.304 6.72-2.304 4.096 0 6.976 2.56 6.976 7.36 0 4.928-2.88 7.424-7.488 7.424-3.776 0-7.104-1.984-9.792-4.544l-5.184 7.168c3.776 3.712 9.024 6.592 16.64 6.592z"/>
    <path d="m586.57 535.71h18.112v-8h-18.112z"/>
    <path d="m627.27 551.13c9.984 0 16.64-5.568 16.64-12.928 0-6.528-3.456-10.496-8-12.864v-0.32c3.264-2.24 6.016-6.016 6.016-10.56 0-7.744-5.696-12.736-14.272-12.736-8.832 0-15.104 4.928-15.104 12.864 0 5.056 2.496 8.704 6.208 11.456v0.32c-4.416 2.368-7.808 6.08-7.808 12.032 0 7.552 6.976 12.736 16.32 12.736zm2.88-28.864c-4.672-1.856-7.616-3.904-7.616-7.68 0-3.392 2.24-4.992 4.8-4.992 3.392 0 5.376 2.176 5.376 5.632 0 2.432-0.768 4.864-2.56 7.04zm-2.624 20.928c-3.712 0-6.848-2.24-6.848-6.144 0-3.008 1.28-5.888 3.2-7.744 5.824 2.496 9.472 4.288 9.472 8.448 0 3.776-2.56 5.44-5.824 5.44z"/>
    <path d="m665.43 524.83c-3.2 0-5.76-1.856-5.76-6.976 0-5.504 2.56-7.616 5.568-7.616 2.944 0 5.952 2.24 6.912 10.112-1.856 3.264-4.416 4.48-6.72 4.48zm-15.488 20.608c3.008 3.008 7.616 5.696 14.016 5.696 9.728 0 18.816-8 18.816-25.28s-8.768-24.128-17.792-24.128c-8.512 0-15.68 6.016-15.68 16.128 0 10.24 5.952 14.976 13.952 14.976 2.752 0 6.784-1.728 9.088-4.8-0.448 10.432-4.288 13.888-9.152 13.888-2.752 0-5.696-1.536-7.296-3.264z"/>
    <path d="m697.33 550.24h11.456c0.832-18.624 1.984-27.584 12.992-40.704v-6.912h-32.64v9.472h20.48c-8.96 12.416-11.392 22.464-12.288 38.144z"/>
    <path d="m744.33 551.13c10.048 0 16.896-8.576 16.896-24.96 0-16.256-6.848-24.448-16.896-24.448s-16.832 8.064-16.832 24.448 6.784 24.96 16.832 24.96zm0-8.832c-3.392 0-6.08-3.072-6.08-16.128 0-12.992 2.688-15.68 6.08-15.68s6.144 2.688 6.144 15.68c0 13.056-2.752 16.128-6.144 16.128z"/>
   </g>
  </g>
 </g>
</svg>
