<?xml version="1.0" encoding="UTF-8" standalone="no"?>
<!-- Created with Inkscape (http://www.inkscape.org/) -->

<svg
   xmlns:dc="http://purl.org/dc/elements/1.1/"
   xmlns:cc="http://creativecommons.org/ns#"
   xmlns:rdf="http://www.w3.org/1999/02/22-rdf-syntax-ns#"
   xmlns:svg="http://www.w3.org/2000/svg"
   xmlns="http://www.w3.org/2000/svg"
   xmlns:sodipodi="http://sodipodi.sourceforge.net/DTD/sodipodi-0.dtd"
   xmlns:inkscape="http://www.inkscape.org/namespaces/inkscape"
   width="768"
   height="512"
   viewBox="0 0 203.2 135.46667"
   version="1.1"
   id="svg8"
   inkscape:version="0.92.4 (5da689c313, 2019-01-14)"
   sodipodi:docname="李师傅上门开锁_路径.svg">
  <title
     id="title4609">王师傅专通下水</title>
  <defs
     id="defs2" />
  <sodipodi:namedview
     id="base"
     pagecolor="#ffffff"
     bordercolor="#666666"
     borderopacity="1.0"
     inkscape:pageopacity="0.0"
     inkscape:pageshadow="2"
     inkscape:zoom="1"
     inkscape:cx="560.52179"
     inkscape:cy="309.28111"
     inkscape:document-units="px"
     inkscape:current-layer="layer1"
     showgrid="false"
     units="px"
     inkscape:pagecheckerboard="true"
     inkscape:window-width="1920"
     inkscape:window-height="1017"
     inkscape:window-x="-8"
     inkscape:window-y="-8"
     inkscape:window-maximized="1" />
  <metadata
     id="metadata5">
    <rdf:RDF>
      <cc:Work
         rdf:about="">
        <dc:format>image/svg+xml</dc:format>
        <dc:type
           rdf:resource="http://purl.org/dc/dcmitype/StillImage" />
        <dc:title>王师傅专通下水</dc:title>
      </cc:Work>
    </rdf:RDF>
  </metadata>
  <g
     inkscape:label="Layer 1"
     inkscape:groupmode="layer"
     id="layer1"
     transform="translate(0,-161.53331)">
    <rect
       style="fill:none;fill-opacity:1;stroke:#000ff0;stroke-width:7.9375001;stroke-miterlimit:5;stroke-dasharray:none;stroke-opacity:1;stroke-dashoffset:0;stroke-linejoin:miter;stroke-linecap:square"
       id="rect4548"
       width="203.2"
       height="135.46667"
       x="2.7758788e-006"
       y="161.53331" />
    <rect
       style="fill:none;fill-opacity:1;stroke:none;stroke-width:2.5135417;stroke-linecap:square;stroke-linejoin:miter;stroke-miterlimit:5;stroke-dasharray:none;stroke-dashoffset:0;stroke-opacity:1"
       id="rect4548-0"
       width="193.03999"
       height="128.69334"
       x="5.0800047"
       y="164.91998" />
    <flowRoot
       xml:space="preserve"
       id="flowRoot87"
       style="fill:black;fill-opacity:1;stroke:none;font-family:'Noto Sans CJK SC';font-style:normal;font-weight:900;font-size:40px;line-height:1.25;letter-spacing:0px;word-spacing:0px;-inkscape-font-specification:'Noto Sans CJK SC Heavy';font-stretch:normal;font-variant:normal;writing-mode:vertical-lr;"><flowRegion
         id="flowRegion89"
         style="writing-mode:vertical-lr;"><rect
           id="rect91"
           width="169.70563"
           height="419.21332"
           x="607.10168"
           y="62.482117"
           style="writing-mode:vertical-lr;" /></flowRegion><flowPara
         id="flowPara93"></flowPara></flowRoot>    <flowRoot
       xml:space="preserve"
       id="flowRoot95"
       style="font-style:normal;font-variant:normal;font-weight:900;font-stretch:normal;font-size:40px;line-height:1.25;font-family:'Noto Sans CJK SC';-inkscape-font-specification:'Noto Sans CJK SC Heavy';letter-spacing:0px;word-spacing:0px;fill:#000000;fill-opacity:1;stroke:none"
       transform="matrix(0.26458334,0,0,0.26458334,0,161.53331)"><flowRegion
         id="flowRegion97"><rect
           id="rect99"
           width="170.71577"
           height="435.37576"
           x="582.85803"
           y="40.258759" /></flowRegion><flowPara
         style="writing-mode:vertical-lr"
         id="flowPara103" /></flowRoot>    <g
       id="g4867">
      <g
         id="g4843">
        <g
           aria-label="专业
设备"
           transform="matrix(0.26458334,0,0,0.26458334,-110.53992,111.39084)"
           style="font-style:normal;font-variant:normal;font-weight:900;font-stretch:normal;font-size:40px;line-height:1.25;font-family:'Noto Sans CJK SC';-inkscape-font-specification:'Noto Sans CJK SC Heavy';letter-spacing:0px;word-spacing:0px;fill:#0000ff;fill-opacity:1;stroke:none"
           id="flowRoot125">
          <path
             d="m 545.94071,262.00284 v -15.568 h -54.32 l 1.792,-7.392 h 44.464 v -15.456 h -40.768 c 0.672,-3.024 1.344,-6.16 2.016,-9.072 h -17.472 c -0.56,2.912 -1.232,5.936 -1.904,9.072 h -25.648 v 15.456 h 22.064 c -0.56,2.464 -1.232,4.928 -1.792,7.392 h -29.792 v 15.568 h 25.536 c -2.352,8.4 -4.816,16.128 -7.056,22.736 h 48.384 c -3.584,3.696 -7.504,7.504 -11.424,11.2 -8.848,-2.688 -17.808,-4.928 -25.2,-6.496 l -8.624,12.32 c 18.368,4.48 43.68,13.44 55.776,20.16 l 9.408,-14.224 c -3.808,-1.904 -8.736,-3.92 -14.112,-5.936 8.736,-8.736 17.696,-17.808 25.088,-25.76 l -12.544,-7.168 -2.688,0.784 h -41.552 l 2.016,-7.616 z"
             style="font-size:112px;text-align:center;writing-mode:lr-tb;text-anchor:middle;fill:#0000ff"
             id="path4869" />
          <path
             d="m 630.50071,299.74684 v -18.816 l 10.528,5.488 c 5.6,-11.088 12.32,-27.328 17.248,-42.224 l -14.784,-7.056 c -3.024,11.984 -8.176,25.76 -12.992,36.288 v -57.568 h -16.8 v 83.888 h -12.544 v -83.776 h -16.8 v 57.344 c -3.136,-10.976 -8.064,-25.088 -11.984,-36.4 l -14.896,4.48 c 4.592,14.336 10.192,33.152 12.432,44.464 l 14.448,-5.152 v 19.04 h -27.776 v 16.24 h 101.92 v -16.24 z"
             style="font-size:112px;text-align:center;writing-mode:lr-tb;text-anchor:middle;fill:#0000ff"
             id="path4871" />
          <path
             d="m 518.05271,372.88284 v 8.512 c 0,12.768 2.576,18.368 15.568,18.368 h 6.496 c 2.576,0 5.6,-0.112 7.504,-1.008 -0.56,-3.696 -0.896,-9.296 -1.12,-13.328 -1.68,0.56 -4.704,0.896 -6.608,0.896 h -4.704 c -1.568,0 -1.792,-1.456 -1.792,-4.704 v -23.744 h -42.784 v 11.984 c 0,7.392 -1.344,14.896 -15.008,20.384 2.912,2.352 8.736,8.736 10.64,11.872 14.896,-6.72 18.928,-18.256 19.488,-29.232 z m -39.76,-0.112 c -3.92,-4.928 -12.544,-12.32 -18.592,-17.248 l -10.416,9.856 c 6.16,5.488 14.336,13.44 17.92,18.592 z m -7.728,54.88 v -38.976 h -27.776 v 15.568 h 12.096 v 30.24 c 0,5.376 -2.912,9.52 -5.6,11.536 2.688,3.024 6.72,9.856 7.952,13.776 2.128,-3.024 6.272,-6.72 27.552,-25.872 -2.016,-3.024 -4.816,-9.184 -6.16,-13.552 z m 51.632,-9.856 c -2.912,4.928 -6.496,9.184 -10.752,12.88 -4.704,-3.808 -8.624,-8.064 -11.648,-12.88 z m 10.752,-15.68 -2.576,0.56 h -48.496 v 15.12 h 9.632 l -6.608,2.24 c 3.808,7.168 8.288,13.44 13.552,18.816 -7.504,3.696 -16.24,6.16 -25.872,7.616 2.688,3.472 5.936,9.968 7.392,14.112 11.648,-2.576 22.064,-6.16 31.024,-11.312 8.176,5.152 17.584,9.072 28.56,11.648 2.016,-4.368 6.384,-10.976 9.744,-14.448 -9.184,-1.568 -17.472,-4.144 -24.64,-7.616 8.288,-8.064 14.448,-18.704 18.256,-32.592 z"
             style="font-size:112px;text-align:center;writing-mode:lr-tb;text-anchor:middle;fill:#0000ff"
             id="path4873" />
          <path
             d="m 573.38071,410.73884 c 11.984,-2.24 23.296,-5.264 33.6,-9.52 11.76,4.48 24.752,7.616 38.64,9.52 z m 41.888,33.488 v -4.144 h 13.216 v 4.144 z m -31.584,-4.144 h 14.672 v 4.144 h -14.672 z m 14.672,-12.432 h -14.672 v -3.136 h 14.672 z m 30.128,0 h -13.216 v -3.136 h 13.216 z m -8.736,-50.512 c -3.808,3.136 -8.4,5.824 -13.552,8.176 -6.048,-2.352 -11.424,-5.152 -15.68,-8.176 z m 16.24,-14.672 -2.576,0.672 h -29.232 c 1.568,-1.904 3.024,-3.808 4.368,-5.712 l -17.36,-3.584 c -6.272,9.296 -17.472,18.704 -34.272,25.424 3.472,2.576 8.512,8.4 10.752,12.208 3.696,-1.792 7.168,-3.696 10.528,-5.712 2.8,2.24 5.936,4.256 9.184,6.16 -10.64,2.8 -22.512,4.704 -34.832,5.824 2.688,3.696 5.712,10.752 6.944,15.12 2.352,-0.336 4.816,-0.672 7.168,-1.008 v 49.056 h 17.024 v -2.912 h 44.8 v 2.912 h 17.92 v -50.064 c 2.128,0.336 4.256,0.56 6.384,0.784 2.128,-4.368 6.496,-11.424 9.968,-15.12 -12.992,-0.896 -25.648,-2.8 -36.96,-5.376 8.624,-5.936 15.792,-13.44 20.944,-22.512 z"
             style="font-size:112px;text-align:center;writing-mode:lr-tb;text-anchor:middle;fill:#0000ff"
             id="path4875" />
        </g>
        <g
           aria-label="上门
开锁"
           transform="matrix(0.26458334,0,0,0.26458334,21.260665,111.65754)"
           style="font-style:normal;font-variant:normal;font-weight:900;font-stretch:normal;font-size:40px;line-height:1.25;font-family:'Noto Sans CJK SC';-inkscape-font-specification:'Noto Sans CJK SC Heavy';letter-spacing:0px;word-spacing:0px;fill:#000000;fill-opacity:1;stroke:none"
           id="flowRoot125-2">
          <path
             d="m 500.69271,298.85084 v -35.728 h 38.528 v -16.464 h -38.528 v -30.912 h -17.584 v 83.104 h -39.312 v 16.464 h 103.376 v -16.464 z"
             style="font-size:112px;text-align:center;writing-mode:lr-tb;text-anchor:middle;fill:#0000ff"
             id="path4878" />
          <path
             d="m 559.60471,320.69084 h 16.688 v -80.192 h -16.688 z m 3.136,-98.784 c 5.712,6.944 12.992,16.464 16.128,22.512 l 13.328,-9.632 c -3.472,-5.936 -11.312,-14.896 -17.024,-21.28 z m 92.96,-3.92 h -63.056 v 15.568 h 46.48 v 69.664 c 0,2.128 -0.784,2.8 -2.912,2.8 -2.128,0.112 -9.744,0.112 -15.456,-0.224 2.24,3.92 4.704,10.864 5.376,15.12 10.304,0.112 17.472,-0.224 22.624,-2.688 5.152,-2.576 6.944,-6.608 6.944,-14.784 z"
             style="font-size:112px;text-align:center;writing-mode:lr-tb;text-anchor:middle;fill:#0000ff"
             id="path4880" />
          <path
             d="m 485.46071,400.77084 v -2.352 -22.512 h 22.512 v 24.864 z m 61.6,0 h -21.952 v -24.864 h 18.816 v -15.344 h -96.32 v 15.344 h 21.056 v 22.4 2.464 h -24.528 v 15.568 h 23.072 c -2.464,12.096 -8.624,23.856 -23.744,32.928 4.144,2.688 10.416,8.512 13.328,12.208 18.816,-11.872 25.424,-28.56 27.664,-45.136 h 23.52 v 44.688 h 17.136 v -44.688 h 21.952 z"
             style="font-size:112px;text-align:center;writing-mode:lr-tb;text-anchor:middle;fill:#ff0000"
             id="path4882" />
          <path
             d="m 647.18871,357.53884 c -2.016,5.936 -6.048,13.888 -9.296,19.04 l 11.312,4.256 c 3.472,-4.704 7.84,-11.76 11.984,-18.816 z m -62.832,78.512 v -12.768 h 12.432 v -14.448 h -12.432 v -8.624 h 12.432 v -14.448 h -28.56 c 1.68,-2.24 3.36,-4.704 4.816,-7.168 h 25.424 v -14.112 h -18.144 c 0.896,-1.792 1.568,-3.696 2.24,-5.488 l -13.776,-4.256 c -3.36,9.632 -9.184,18.816 -15.792,24.864 2.24,3.584 5.936,11.984 6.944,15.456 1.008,-1.008 2.128,-2.016 3.136,-3.136 v 8.288 h 6.72 v 8.624 h -12.88 v 14.448 h 12.88 v 11.424 c 0,7.504 -5.488,14.112 -8.736,17.024 2.576,1.792 7.616,6.496 9.296,9.184 2.352,-2.352 6.608,-5.04 28.224,-17.136 -1.12,-3.136 -2.464,-9.408 -2.912,-13.664 z m 52.192,-36.176 h -15.68 v 18.928 c 0,4.592 -0.784,9.968 -4.368,15.008 v -37.52 h 24.864 v 39.536 h 15.68 v -54.432 h -20.272 v -26.88 h -15.12 v 26.88 h -11.872 l 11.2,-5.824 c -1.904,-5.152 -6.048,-12.768 -10.416,-18.368 l -11.76,5.6 c 3.92,5.6 7.84,13.328 9.408,18.592 h -6.608 v 54.992 h 12.88 c -4.368,4.928 -11.648,9.52 -23.632,13.104 3.584,2.912 8.176,8.4 10.192,11.648 29.344,-10.304 35.504,-26.992 35.504,-42.112 z m -8.624,45.808 c 8.064,4.368 19.152,11.2 24.192,15.68 l 10.528,-11.088 c -5.712,-4.48 -17.024,-10.64 -24.864,-14.448 z"
             style="font-size:112px;text-align:center;writing-mode:lr-tb;text-anchor:middle;fill:#ff0000"
             id="path4884" />
        </g>
        <g
           id="g4825">
          <g
             aria-label="李师傅"
             transform="matrix(0.26458334,0,0,0.26458334,42.005145,106.5057)"
             style="font-style:normal;font-variant:normal;font-weight:900;font-stretch:normal;font-size:40px;line-height:1.25;font-family:'Noto Sans CJK SC';-inkscape-font-specification:'Noto Sans CJK SC Heavy';text-align:start;letter-spacing:0px;word-spacing:0px;text-anchor:start;fill:#0000ff;fill-opacity:1;stroke:none"
             id="flowRoot50">
            <path
               d="m 230.85641,279.25438 v -10.152 c 6.048,6.48 13.896,11.664 22.608,14.688 1.512,-2.664 4.536,-6.696 6.84,-8.712 -6.912,-1.8 -13.536,-4.824 -18.72,-8.568 h 16.704 v -9.648 h -27.432 v -6.12 h -10.656 v 6.12 h -26.784 v 9.648 h 15.912 c -4.968,3.888 -11.448,7.2 -18.216,9.144 2.232,2.016 5.256,5.904 6.696,8.352 2.664,-0.936 5.256,-2.088 7.704,-3.456 v 8.64 h 20.016 c -1.8,0.936 -3.528,1.728 -5.184,2.376 v 2.736 h -27.072 v 9.432 h 27.072 v 4.32 c 0,0.936 -0.36,1.152 -1.8,1.224 -1.44,0 -6.984,0 -11.088,-0.216 1.656,2.52 3.888,6.912 4.608,9.792 5.4,0 9.936,-0.144 13.68,-1.584 3.816,-1.512 4.968,-4.032 4.968,-8.856 v -4.68 h 27.72 v -9.432 h -26.352 c 5.544,-2.664 10.944,-5.76 15.624,-8.64 l -6.408,-5.904 -2.232,0.504 h -32.976 c 5.328,-2.952 10.152,-6.768 14.112,-11.232 v 10.224 z"
               style="font-size:72px;text-align:center;writing-mode:vertical-lr;text-anchor:middle;fill:#0000ff"
               id="path4887" />
            <path
               d="m 203.42441,331.16638 h -9.288 v 35.352 h 9.288 z m 2.88,20.304 c 0,12.24 -1.152,24.12 -11.16,32.544 2.376,1.44 6.12,4.824 7.848,6.912 11.52,-10.08 12.888,-24.84 12.888,-39.384 v -28.512 h -9.576 z m 52.56,-16.2 v -9.432 h -41.544 v 9.432 h 15.696 v 5.112 h -14.184 v 40.176 h 9.432 v -30.888 h 4.752 v 41.256 h 9.792 v -41.256 h 5.256 v 21.168 c 0,0.72 -0.216,0.936 -0.864,0.936 -0.576,0 -2.376,0 -3.888,-0.072 1.152,2.376 2.376,6.264 2.664,8.928 3.6,0 6.408,-0.144 8.784,-1.656 2.376,-1.512 2.952,-3.96 2.952,-7.92 v -30.672 h -14.904 v -5.112 z"
               style="font-size:72px;text-align:center;writing-mode:vertical-lr;text-anchor:middle;fill:#0000ff"
               id="path4889" />
            <path
               d="m 241.44041,453.56638 c 0,0.864 -0.36,1.08 -1.368,1.152 -0.792,0 -3.672,0 -6.192,-0.072 -1.8,-2.304 -4.824,-5.472 -7.344,-8.064 h 14.904 z m -0.864,-26.856 v -1.944 h 5.688 v 1.944 z m -15.552,0 v -1.944 h 5.616 v 1.944 z m 5.616,-9.72 v 1.872 h -5.616 v -1.872 z m 15.624,0 v 1.872 h -5.688 v -1.872 z m 13.752,21.528 h -8.496 v -2.088 h 4.824 v -25.92 h -15.768 v -1.872 h 18.792 v -7.992 h -6.12 l 2.448,-2.16 c -1.8,-1.296 -5.112,-3.24 -7.488,-4.464 l -5.616,4.608 c 0.936,0.576 2.016,1.296 3.096,2.016 h -5.112 v -5.904 h -9.936 v 5.904 h -15.984 c 0.36,-0.864 0.72,-1.656 1.008,-2.52 l -9.864,-3.096 c -3.456,9.936 -9.432,19.872 -15.624,26.136 1.728,2.592 4.536,8.424 5.472,11.016 1.152,-1.296 2.376,-2.664 3.528,-4.104 v 34.992 h 9.936 v -50.472 c 1.512,-2.808 2.88,-5.76 4.176,-8.64 v 4.68 h 17.352 v 1.872 h -15.264 v 26.136 h 9.648 v -4.032 h 5.616 v 2.016 h 9.936 v -2.016 h 5.688 v 2.232 h -4.824 v 3.672 h -29.448 v 8.064 h 10.872 l -5.472,3.168 c 2.736,3.168 6.624,7.632 8.352,10.224 l 7.416,-4.536 c 1.008,2.376 2.088,5.472 2.376,7.776 5.04,0 9,-0.072 12.024,-1.296 3.168,-1.368 3.96,-3.6 3.96,-7.992 v -7.344 h 8.496 z"
               style="font-size:72px;text-align:center;writing-mode:vertical-lr;text-anchor:middle;fill:#0000ff"
               id="path4891" />
          </g>
          <path
             style="fill:none;fill-opacity:1;stroke:#0000f7;stroke-width:2.64583373;stroke-linecap:butt;stroke-linejoin:miter;stroke-miterlimit:4;stroke-dasharray:none;stroke-dashoffset:0;stroke-opacity:1"
             d="m 70.114586,169.47081 h 62.970834 v 62.97084 H 70.114586 Z"
             id="rect4700" />
        </g>
      </g>
      <g
         aria-label="电话
136-1367-7508"
         transform="matrix(0.26458334,0,0,0.26458334,-30.839885,150.45398)"
         style="font-style:normal;font-variant:normal;font-weight:900;font-stretch:normal;font-size:40px;line-height:1.25;font-family:'Noto Sans CJK SC';-inkscape-font-specification:'Noto Sans CJK SC Heavy';letter-spacing:0px;word-spacing:0px;fill:#0000ff;fill-opacity:1;stroke:none"
         id="flowRoot4727">
        <path
           d="m 462.592,398.24 c -5.22933,0 -5.72267,-0.78934 -5.72267,-7.30134 V 388.472 h 25.65334 c -0.78934,7.79466 -2.072,9.768 -6.31467,9.768 z m -37.39466,-23.77867 v -6.31466 h 16.18133 v 6.31466 z m 16.18133,-26.44266 v 7.00533 h -16.18133 v -7.00533 z m 31.376,20.128 v 6.31466 h -15.88534 v -6.31466 z m 0,-20.128 v 7.00533 h -15.88534 v -7.00533 z M 487.456,334.008 H 456.86933 V 320.58933 H 441.37867 V 334.008 h -30.98133 v 59.98933 h 14.8 V 388.472 h 16.18133 v 2.368 c 0,17.168 4.24266,21.904 19.33866,21.904 h 17.168 c 12.92534,0 17.36534,-6.01867 19.24,-21.904 -2.86133,-0.69067 -6.512,-1.97334 -9.66933,-3.552 z"
           style="font-size:98.66666412px;text-align:center;text-anchor:middle;fill:#0000ff"
           id="path4895" />
        <path
           d="M 531.06667,335.98133 C 527.51467,331.64 520.016,325.22667 514.688,320.78667 l -9.176,8.68266 c 5.328,4.93334 12.62933,11.84 15.78667,16.37867 z M 525.64,383.736 V 349.89333 H 501.96 V 363.608 h 10.26133 v 25.85066 c 0,5.22934 -3.35466,9.768 -5.82133,11.84 2.368,2.368 6.512,7.992 7.79467,11.14934 1.87466,-2.664 5.624,-6.01867 24.272,-22.89067 -1.776,-2.664 -4.34134,-8.38667 -5.624,-12.33333 z m 50.41866,13.616 h -22.19999 v -9.66934 h 22.19999 z m 18.74667,-34.73067 V 349.104 H 571.816 v -13.51733 c 7.00533,-1.08534 13.81333,-2.368 19.93066,-3.94667 L 582.472,319.99733 c -12.23467,3.35467 -30.68533,5.82134 -47.55733,7.00534 1.48,3.05866 3.256,8.38666 3.74933,11.74133 6.01867,-0.296 12.33333,-0.78933 18.74667,-1.38133 V 349.104 h -24.17334 v 13.51733 h 24.17334 v 12.136 h -17.95734 v 38.776 h 14.40534 v -3.256 h 22.19999 v 2.86133 h 15.19467 V 374.75733 H 571.816 v -12.136 z"
           style="font-size:98.66666412px;text-align:center;text-anchor:middle;fill:#0000ff"
           id="path4897" />
        <path
           d="m 138.23768,527.49331 h 46.37333 v -14.208 h -13.22133 v -59.2 h -12.92534 c -5.13066,3.15734 -10.26133,5.13067 -18.15466,6.61067 v 10.85333 h 13.51733 v 41.736 h -15.58933 z"
           style="font-size:98.66666412px;text-align:center;text-anchor:middle;fill:#0000ff"
           id="path4899" />
        <path
           d="m 218.19468,528.87464 c 14.60266,0 27.13333,-7.696 27.13333,-21.41066 0,-9.472 -6.01867,-15.392 -14.208,-17.85867 v -0.49333 c 7.89333,-3.15734 11.84,-8.88 11.84,-16.18133 0,-13.12267 -9.96533,-20.22667 -25.16,-20.22667 -8.68267,0 -15.984,3.35467 -22.792,9.07733 l 8.88,10.75467 c 4.44,-3.848 8.18933,-6.11733 13.12267,-6.11733 5.42666,0 8.38666,2.76266 8.38666,7.79466 0,5.82133 -3.94666,9.66933 -16.47733,9.66933 v 12.33334 c 15.392,0 18.74667,3.74933 18.74667,10.064 0,5.52533 -4.44,8.38666 -11.248,8.38666 -5.72267,0 -10.85334,-2.86133 -15.29334,-7.104 l -8.09066,11.05067 c 5.328,6.216 13.51733,10.26133 25.16,10.26133 z"
           style="font-size:98.66666412px;text-align:center;text-anchor:middle;fill:#0000ff"
           id="path4901" />
        <path
           d="m 282.36501,515.75198 c -4.63733,0 -9.176,-3.65067 -10.656,-15.88534 2.96,-4.83466 6.70933,-6.61066 10.36,-6.61066 4.83467,0 8.78133,2.664 8.78133,10.75466 0,8.288 -3.848,11.74134 -8.48533,11.74134 z m 23.58133,-54.26667 c -4.63733,-4.736 -11.74133,-8.78133 -21.41066,-8.78133 -15.19467,0 -29.20534,12.136 -29.20534,38.67733 0,26.73867 13.616,37.49333 27.42934,37.49333 13.12266,0 24.17333,-9.27466 24.17333,-24.864 0,-15.984 -9.27467,-23.088 -21.50933,-23.088 -4.144,0 -10.36,2.56534 -14.01067,7.20267 0.69067,-15.984 6.70933,-21.41066 14.30667,-21.41066 4.04533,0 8.584,2.56533 10.95199,5.13066 z"
           style="font-size:98.66666412px;text-align:center;text-anchor:middle;fill:#0000ff"
           id="path4903" />
        <path
           d="m 315.85001,505.09598 h 27.92267 v -12.33334 h -27.92267 z"
           style="font-size:98.66666412px;text-align:center;text-anchor:middle;fill:#0000ff"
           id="path4905" />
        <path
           d="m 356.3835,527.49331 h 46.37334 v -14.208 H 389.5355 v -59.2 h -12.92533 c -5.13067,3.15734 -10.26133,5.13067 -18.15467,6.61067 v 10.85333 h 13.51734 v 41.736 H 356.3835 Z"
           style="font-size:98.66666412px;text-align:center;text-anchor:middle;fill:#0000ff"
           id="path4907" />
        <path
           d="m 436.34052,528.87464 c 14.60267,0 27.13333,-7.696 27.13333,-21.41066 0,-9.472 -6.01866,-15.392 -14.208,-17.85867 v -0.49333 c 7.89334,-3.15734 11.84,-8.88 11.84,-16.18133 0,-13.12267 -9.96533,-20.22667 -25.16,-20.22667 -8.68266,0 -15.984,3.35467 -22.792,9.07733 l 8.88,10.75467 c 4.44,-3.848 8.18934,-6.11733 13.12267,-6.11733 5.42667,0 8.38667,2.76266 8.38667,7.79466 0,5.82133 -3.94667,9.66933 -16.47734,9.66933 v 12.33334 c 15.392,0 18.74667,3.74933 18.74667,10.064 0,5.52533 -4.44,8.38666 -11.248,8.38666 -5.72267,0 -10.85333,-2.86133 -15.29333,-7.104 l -8.09067,11.05067 c 5.328,6.216 13.51733,10.26133 25.16,10.26133 z"
           style="font-size:98.66666412px;text-align:center;text-anchor:middle;fill:#0000ff"
           id="path4909" />
        <path
           d="m 500.51085,515.75198 c -4.63733,0 -9.176,-3.65067 -10.656,-15.88534 2.96,-4.83466 6.70934,-6.61066 10.36,-6.61066 4.83467,0 8.78134,2.664 8.78134,10.75466 0,8.288 -3.848,11.74134 -8.48534,11.74134 z m 23.58133,-54.26667 c -4.63733,-4.736 -11.74133,-8.78133 -21.41066,-8.78133 -15.19467,0 -29.20533,12.136 -29.20533,38.67733 0,26.73867 13.616,37.49333 27.42933,37.49333 13.12267,0 24.17333,-9.27466 24.17333,-24.864 0,-15.984 -9.27466,-23.088 -21.50933,-23.088 -4.144,0 -10.36,2.56534 -14.01067,7.20267 0.69067,-15.984 6.70934,-21.41066 14.30667,-21.41066 4.04533,0 8.584,2.56533 10.952,5.13066 z"
           style="font-size:98.66666412px;text-align:center;text-anchor:middle;fill:#0000ff"
           id="path4911" />
        <path
           d="m 546.72385,527.49331 h 17.66134 c 1.28266,-28.712 3.05866,-42.52533 20.02933,-62.752 v -10.656 h -50.32 v 14.60267 h 31.57333 c -13.81333,19.14133 -17.56266,34.632 -18.944,58.80533 z"
           style="font-size:98.66666412px;text-align:center;text-anchor:middle;fill:#0000ff"
           id="path4913" />
        <path
           d="m 594.12085,505.09598 h 27.92267 v -12.33334 h -27.92267 z"
           style="font-size:98.66666412px;text-align:center;text-anchor:middle;fill:#0000ff"
           id="path4915" />
        <path
           d="M 644.61967,527.49331 H 662.281 c 1.28267,-28.712 3.05867,-42.52533 20.02933,-62.752 v -10.656 h -50.32 v 14.60267 h 31.57334 c -13.81334,19.14133 -17.56267,34.632 -18.944,58.80533 z"
           style="font-size:98.66666412px;text-align:center;text-anchor:middle;fill:#0000ff"
           id="path4917" />
        <path
           d="m 715.20336,528.87464 c 14.10934,0 26.54134,-9.57066 26.54134,-26.048 0,-15.88533 -10.45867,-23.18666 -22.89067,-23.18666 -2.76267,0 -4.93333,0.39466 -7.59733,1.48 l 1.08533,-12.432 h 26.14667 v -14.60267 h -41.24267 l -1.87467,36.30933 7.696,5.032 c 4.34134,-2.76266 6.31467,-3.552 10.36,-3.552 6.31467,0 10.75467,3.94667 10.75467,11.34667 0,7.59733 -4.44,11.44533 -11.544,11.44533 -5.82133,0 -10.952,-3.05866 -15.096,-7.00533 l -7.992,11.05067 c 5.82133,5.72266 13.912,10.16266 25.65333,10.16266 z"
           style="font-size:98.66666412px;text-align:center;text-anchor:middle;fill:#0000ff"
           id="path4919" />
        <path
           d="m 777.20303,528.87464 c 15.49067,0 26.048,-13.22133 26.048,-38.48 0,-25.06133 -10.55733,-37.69066 -26.048,-37.69066 -15.49067,0 -25.94933,12.432 -25.94933,37.69066 0,25.25867 10.45866,38.48 25.94933,38.48 z m 0,-13.616 c -5.22933,0 -9.37333,-4.736 -9.37333,-24.864 0,-20.02933 4.144,-24.17333 9.37333,-24.17333 5.22933,0 9.472,4.144 9.472,24.17333 0,20.128 -4.24267,24.864 -9.472,24.864 z"
           style="font-size:98.66666412px;text-align:center;text-anchor:middle;fill:#0000ff"
           id="path4921" />
        <path
           d="m 837.22936,528.87464 c 15.392,0 25.65334,-8.584 25.65334,-19.93066 0,-10.064 -5.328,-16.18134 -12.33334,-19.832 v -0.49334 c 5.032,-3.45333 9.27467,-9.27466 9.27467,-16.27999 0,-11.93867 -8.78133,-19.63467 -22.00267,-19.63467 -13.616,0 -23.28533,7.59733 -23.28533,19.832 0,7.79466 3.848,13.41866 9.57067,17.66133 v 0.49333 c -6.808,3.65067 -12.03734,9.37334 -12.03734,18.54934 0,11.64266 10.75467,19.63466 25.16,19.63466 z m 4.44,-44.49866 c -7.20266,-2.86134 -11.74133,-6.01867 -11.74133,-11.84 0,-5.22933 3.45333,-7.696 7.4,-7.696 5.22933,0 8.288,3.35467 8.288,8.68267 0,3.74933 -1.184,7.49866 -3.94667,10.85333 z m -4.04533,32.264 c -5.72267,0 -10.55733,-3.45334 -10.55733,-9.472 0,-4.63734 1.97333,-9.07734 4.93333,-11.93867 8.97867,3.848 14.60267,6.61067 14.60267,13.024 0,5.82133 -3.94667,8.38667 -8.97867,8.38667 z"
           style="font-size:98.66666412px;text-align:center;text-anchor:middle;fill:#0000ff"
           id="path4923" />
      </g>
    </g>
  </g>
</svg>
