<?xml version="1.0" encoding="UTF-8" standalone="no"?>
<!-- Created with Inkscape (http://www.inkscape.org/) -->

<svg
   xmlns:dc="http://purl.org/dc/elements/1.1/"
   xmlns:cc="http://creativecommons.org/ns#"
   xmlns:rdf="http://www.w3.org/1999/02/22-rdf-syntax-ns#"
   xmlns:svg="http://www.w3.org/2000/svg"
   xmlns="http://www.w3.org/2000/svg"
   xmlns:sodipodi="http://sodipodi.sourceforge.net/DTD/sodipodi-0.dtd"
   xmlns:inkscape="http://www.inkscape.org/namespaces/inkscape"
   width="768"
   height="512"
   viewBox="0 0 203.2 135.46667"
   version="1.1"
   id="svg8"
   inkscape:version="0.92.4 (5da689c313, 2019-01-14)"
   sodipodi:docname="刘师傅家电维修_路径.svg">
  <title
     id="title4609">刘师傅家电维修</title>
  <defs
     id="defs2" />
  <sodipodi:namedview
     id="base"
     pagecolor="#ffffff"
     bordercolor="#666666"
     borderopacity="1.0"
     inkscape:pageopacity="0.0"
     inkscape:pageshadow="2"
     inkscape:zoom="0.98994949"
     inkscape:cx="117.7162"
     inkscape:cy="361.07313"
     inkscape:document-units="px"
     inkscape:current-layer="layer1"
     showgrid="false"
     units="px"
     inkscape:pagecheckerboard="true"
     inkscape:window-width="1920"
     inkscape:window-height="1017"
     inkscape:window-x="-8"
     inkscape:window-y="-8"
     inkscape:window-maximized="1" />
  <metadata
     id="metadata5">
    <rdf:RDF>
      <cc:Work
         rdf:about="">
        <dc:format>image/svg+xml</dc:format>
        <dc:type
           rdf:resource="http://purl.org/dc/dcmitype/StillImage" />
        <dc:title>刘师傅家电维修</dc:title>
      </cc:Work>
    </rdf:RDF>
  </metadata>
  <g
     inkscape:label="Layer 1"
     inkscape:groupmode="layer"
     id="layer1"
     transform="translate(0,-161.53331)">
    <rect
       style="fill:none;fill-opacity:1;stroke:#000ff0;stroke-width:7.9375001;stroke-miterlimit:5;stroke-dasharray:none;stroke-opacity:1;stroke-dashoffset:0;stroke-linejoin:miter;stroke-linecap:square"
       id="rect4548"
       width="203.2"
       height="135.46667"
       x="2.7758788e-006"
       y="161.53331" />
    <rect
       style="fill:none;fill-opacity:1;stroke:none;stroke-width:2.5135417;stroke-linecap:square;stroke-linejoin:miter;stroke-miterlimit:5;stroke-dasharray:none;stroke-dashoffset:0;stroke-opacity:1"
       id="rect4548-0"
       width="193.03999"
       height="128.69334"
       x="5.0800047"
       y="164.91998" />
    <flowRoot
       xml:space="preserve"
       id="flowRoot4574"
       style="fill:black;fill-opacity:1;stroke:none;font-family:'Noto Sans CJK SC';font-style:normal;font-weight:900;font-size:40px;line-height:1.25;letter-spacing:0px;word-spacing:0px;-inkscape-font-specification:'Noto Sans CJK SC Heavy';font-stretch:normal;font-variant:normal;text-anchor:middle;text-align:center;writing-mode:vertical-lr;"><flowRegion
         id="flowRegion4576"
         style="text-anchor:middle;text-align:center;writing-mode:vertical-lr;"><rect
           id="rect4578"
           width="707.10681"
           height="289.91379"
           x="29.294424"
           y="154.40599"
           style="text-anchor:middle;text-align:center;writing-mode:vertical-lr;" /></flowRegion><flowPara
         id="flowPara4580" /></flowRoot>    <g
       id="g905">
      <g
         aria-label="社区家电维修"
         transform="matrix(0.26458334,0,0,0.26458334,-2.5883912,159.08839)"
         style="font-style:normal;font-variant:normal;font-weight:900;font-stretch:normal;font-size:40px;line-height:1.25;font-family:'Noto Sans CJK SC';-inkscape-font-specification:'Noto Sans CJK SC Heavy';text-align:center;letter-spacing:0px;word-spacing:0px;text-anchor:middle;fill:#0000ff;fill-opacity:1;stroke:none"
         id="flowRoot4566">
        <path
           d="m 87.842891,95.720781 c -2.28,-2.16 -10.68,-10.08 -15.6,-14.16 5.4,-7.8 9.96,-16.2 13.2,-24.96 l -9.12,-6.6 -3,0.6 h -9.24 l 9.6,-5.52 c -2.04,-4.44 -6.36,-10.68 -10.44,-15.24 l -13.8,7.2 c 3.12,3.96 6.48,9.36 8.52,13.56 h -19.2 v 15.6 h 25.08 c -7.08,11.4 -17.64,21.72 -28.8,27.6 2.04,3.48 5.28,13.199999 6.24,18.239999 4.08,-2.52 8.16,-5.52 12.12,-9 v 41.64 h 17.04 v -43.92 c 2.52,3.36 5.04,6.72 6.72,9.48 z M 126.36289,124.28078 V 82.640781 h 21.36 v -16.8 h -21.36 v -33.72 h -18 v 33.72 H 86.042891 v 16.8 H 108.36289 V 124.28078 H 81.002891 v 17.16 h 69.719999 v -17.16 z"
           style="font-size:120px;fill:#0000ff"
           id="path907" />
        <path
           d="M 179.88289,124.76078 V 52.040781 h 86.16 v -16.68 h -103.2 V 141.44078 h 106.56 v -16.68 z m 79.92,-16.8 c -5.88,-6.12 -14.52,-13.439999 -24,-20.999999 7.44,-7.92 14.28,-16.56 19.92,-25.56 l -16.44,-6.72 c -4.56,7.68 -10.32,15.12 -16.8,21.96 -8.76,-6.72 -17.4,-13.08 -24.72,-18.48 l -12,10.56 c 7.44,5.76 15.96,12.6 24.36,19.44 -9.24,7.92 -19.56,14.639999 -30,19.679999 3.84,3.12 10.44,9.84 13.32,13.44 9.96,-5.88 20.28,-13.32 29.88,-22.079999 9.24,8.039999 17.52,15.719999 22.92,21.839999 z"
           style="font-size:120px;fill:#0000ff"
           id="path909" />
        <path
           d="m 298.32289,55.400781 h 70.92 v 13.08 h 17.88 v -28.8 h -41.76 c -1.2,-3.48 -3.12,-7.32 -4.8,-10.44 l -18.6,5.28 c 0.72,1.56 1.44,3.36 2.16,5.16 h -42.84 v 28.8 h 17.04 z m 27.36,73.439999 c -2.64,0 -5.76,-0.12 -9.48,-0.48 6.36,-3.12 12.48,-6.48 17.88,-10.08 -0.36,3.48 -1.32,6.12 -2.52,7.44 -1.44,2.64 -3.24,3.12 -5.88,3.12 z m 40.2,-54.599999 c -5.52,5.52 -13.32,11.88 -20.88,17.28 -2.4,-4.56 -5.52,-8.76 -9.48,-12.6 2.4,-1.56 4.56,-3.24 6.48,-5.04 h 24.96 v -14.64 h -66.48 v 14.64 h 16.56 c -10.32,5.04 -23.28,8.64 -35.88,10.92 2.76,3.24 7.08,10.2 8.76,13.56 10.92,-2.76 22.32,-6.72 32.52,-11.76 0.72,0.72 1.32,1.44 1.92,2.16 -10.44,6.6 -29.76,13.559999 -44.52,16.439999 3.12,3.6 6.6,9.48 8.52,13.32 13.44,-4.08 30.6,-11.52 42.72,-18.839999 0.36,0.839999 0.72,1.679999 0.96,2.519999 -12,9.72 -34.8,19.44 -53.76,23.52 3.36,3.84 7.08,10.08 9,14.4 8.76,-2.76 18.6,-6.72 27.84,-11.16 2.88,4.68 4.2,11.16 4.44,15.72 3.36,0.12 6.72,0.24 9.48,0.12 6.72,-0.12 10.92,-1.56 15.36,-6.36 6,-5.4 8.76,-18.6 5.88,-32.52 l 2.4,-1.44 c 5.64,15.84 14.28,28.08 28.2,35.04 2.4,-4.44 7.56,-11.04 11.4,-14.28 -13.08,-5.4 -21.48,-16.56 -25.8,-29.519999 4.68,-3.24 9.48,-6.6 13.8,-9.96 z"
           style="fill:#ff0000"
           id="path911" />
        <path
           d="m 469.68289,126.20078 c -6.36,0 -6.96,-0.96 -6.96,-8.88 v -3 h 31.2 c -0.96,9.48 -2.52,11.88 -7.68,11.88 z m -45.48,-28.919999 v -7.68 h 19.68 v 7.68 z m 19.68,-32.16 v 8.52 h -19.68 v -8.52 z m 38.16,24.48 v 7.68 h -19.32 v -7.68 z m 0,-24.48 v 8.52 h -19.32 v -8.52 z m 17.88,-17.04 h -37.2 v -16.32 h -18.84 v 16.32 h -37.68 v 72.959999 h 18 v -6.72 h 19.68 v 2.88 c 0,20.88 5.16,26.64 23.52,26.64 h 20.88 c 15.72,0 21.12,-7.32 23.4,-26.64 -3.48,-0.84 -7.92,-2.4 -11.76,-4.32 z"
           style="fill:#ff0000"
           id="path913" />
        <path
           d="m 542.88289,93.200781 c 7.68,-9.6 14.88,-20.52 20.52,-31.2 l -13.44,-8.4 c -2.16,4.68 -4.68,9.48 -7.2,13.92 l -7.2,0.48 c 6.6,-9.24 12.84,-20.28 17.16,-30.6 l -15.6,-7.32 c -3.96,13.8 -11.76,28.56 -14.4,32.16 -2.64,3.84 -4.68,6.24 -7.32,6.96 1.8,4.32 4.44,12.12 5.28,15.24 1.92,-0.96 4.68,-1.68 13.2,-2.64 -3.12,4.68 -5.88,8.28 -7.44,9.96 -3.84,4.44 -6.48,7.08 -9.84,7.92 1.8,3.959999 4.32,11.279999 5.04,14.279999 3.6,-2.04 9.12,-3.6 39.12,-9.24 -0.12,-3.48 0,-10.079999 0.72,-14.519999 z m -22.68,47.519999 c 12.72,-3.48 29.16,-7.8 44.4,-12.12 l -1.8,-14.4 c -16.68,3.84 -34.2,7.92 -45.72,9.96 z m 64.44,-27.12 h 12.12 v 7.8 h -12.12 z m 3.84,-61.439999 c 2.04,-4.8 3.96,-9.72 5.64,-14.52 2.4,4.44 5.04,9.96 6.6,14.52 z m 8.28,23.28 h -12.12 v -7.68 h 12.12 z m 0,22.68 h -12.12 v -7.2 h 12.12 z m 33.96,23.279999 h -17.76 v -7.8 h 13.68 V 98.120781 h -13.68 v -7.2 h 13.44 v -15.48 h -13.44 v -7.68 h 16.32 v -15.6 h -20.52 l 8.52,-3.96 c -1.56,-4.68 -5.04,-11.64 -8.52,-16.92 l -14.64,6.12 0.6,-1.56 -16.68,-4.8 c -3.48,13.92 -11.28,32.52 -20.16,43.32 2.4,4.2 5.76,12.24 7.2,16.68 1.08,-1.2 2.16,-2.52 3.24,-3.84 v 57.839999 h 16.32 v -7.56 h 46.08 z"
           style="fill:#ff0000"
           id="path915" />
        <path
           d="m 658.08289,31.040781 c -4.92,17.04 -13.44,34.08 -22.68,45 2.64,4.68 6.84,14.88 8.16,19.2 1.56,-1.8 3.12,-3.72 4.56,-5.76 v 55.199999 h 16.56 V 60.200781 c 3.72,-8.04 6.84,-16.44 9.48,-24.36 z m 66.84,25.08 c -2.52,3.12 -5.4,6 -8.64,8.64 -3.6,-2.64 -6.72,-5.64 -9.24,-8.64 z m 12.12,-14.28 -2.64,0.6 h -21.96 c 1.2,-2.64 2.28,-5.28 3.24,-7.92 l -15.72,-3.84 c -3.96,11.88 -11.52,23.16 -20.76,30.12 3.72,2.16 10.08,7.2 12.96,9.96 1.92,-1.68 3.72,-3.48 5.52,-5.52 1.92,2.52 4.08,4.92 6.6,7.32 -6.24,3.12 -13.2,5.76 -20.52,7.56 v -14.76 h -14.28 v 58.319999 h 14.28 V 86.120781 c 1.8,2.64 3.36,5.64 4.32,7.8 10.32,-2.76 19.92,-6.6 28.44,-11.76 7.44,4.8 16.32,8.64 26.52,11.04 2.04,-4.08 6.36,-10.56 9.48,-13.8 -8.64,-1.44 -16.44,-3.84 -23.04,-6.84 7.56,-6.96 13.56,-15.48 17.64,-26.04 z m -8.64,56.28 c -7.8,7.799999 -23.52,13.319999 -38.4,16.079999 3,2.88 6.36,7.56 8.16,10.8 16.8,-4.2 32.76,-11.16 42.6,-21.84 z m -11.88,-11.4 c -5.76,5.04 -17.16,9.48 -26.88,11.76 3.24,2.639999 6.96,6.719999 9,9.839999 11.16,-3.48 22.8,-8.879999 30.48,-16.439999 z m 19.2,24.959999 c -10.08,10.92 -30.36,16.8 -51.6,19.56 3.36,3.6 6.96,9.36 8.76,13.56 24.12,-4.56 44.88,-12.12 57.72,-27.12 z"
           style="fill:#ff0000"
           id="path917" />
      </g>
      <g
         aria-label="冰箱
空调
彩电
电脑
炉灶
洗衣机
热水器
微波炉"
         transform="matrix(0.26458334,0,0,0.26458334,-2.784927,161.99574)"
         style="font-style:normal;font-variant:normal;font-weight:900;font-stretch:normal;font-size:40px;line-height:1.25;font-family:'Noto Sans CJK SC';-inkscape-font-specification:'Noto Sans CJK SC Heavy';text-align:center;letter-spacing:0px;word-spacing:0px;writing-mode:vertical-lr;text-anchor:middle;fill:#0000ff;fill-opacity:1;stroke:none"
         id="flowRoot4582">
        <path
           d="m 65.161703,161.51622 c -3.096,-2.592 -9.576,-6.264 -13.896,-8.496 l -6.048,7.848 c 4.464,2.664 10.728,6.696 13.536,9.432 z m -8.568,18.72 c -3.672,7.632 -8.28,15.48 -11.52,20.376 l 9,6.408 c 3.672,-6.408 7.272,-13.464 10.44,-20.304 z m 19.872,-15.192 -1.728,0.216 h -12.024 v 10.224 h 9 c -2.088,10.584 -6.336,20.016 -13.032,24.768 2.304,2.016 5.256,6.192 6.624,8.712 10.512,-8.496 15.624,-22.968 17.424,-42.408 z m 27.431997,-4.32 c -1.944,3.312 -4.751997,7.056 -7.631997,10.368 -0.864,-2.952 -1.584,-5.976 -2.16,-9.072 v -13.896 h -10.8 v 55.728 c 0,1.152 -0.432,1.512 -1.584,1.512 -1.224,0 -4.536,0 -7.92,-0.144 1.656,2.808 3.672,7.92 4.176,10.944 5.184,0 9.288,-0.504 12.24,-2.376 2.952,-1.8 3.888,-4.752 3.888,-9.864 v -15.48 c 3.096,8.28 7.487997,15.192 13.823997,19.944 1.584,-2.952 5.112,-7.272 7.416,-9.288 -6.984,-4.032 -11.952,-10.368 -15.479997,-18.144 4.175997,-3.96 9.143997,-9.504 13.319997,-14.832 z"
           style="font-size:72px;text-align:justify;text-anchor:start;fill:#0000ff"
           id="path920" />
        <path
           d="m 99.865703,252.95622 v 2.952 h -10.728 v -2.952 z m -10.728,13.608 v -3.096 h 10.728 v 3.096 z m 0,10.8 v -3.24 h 10.728 v 3.24 z m 23.471997,-51.264 H 93.961703 c 0.576,-1.368 1.152,-2.664 1.656,-4.032 l -10.224,-2.592 c -1.512,4.536 -4.032,9.072 -6.984,12.816 v -6.264 h -14.256 c 0.576,-1.296 1.08,-2.664 1.584,-3.96 l -10.008,-2.592 c -2.304,6.84 -6.552,13.968 -11.232,18.288 2.448,1.296 6.768,4.032 8.784,5.688 2.016,-2.232 4.032,-5.04 5.976,-8.208 1.224,2.088 2.304,4.248 3.096,6.048 h -3.816 v 6.264 h -11.232 v 9.432 h 9.36 c -3.168,6.048 -7.92,12.312 -12.456,15.84 2.16,2.016 4.824,5.688 6.264,8.208 2.736,-2.664 5.544,-6.12 8.064,-9.936 v 17.496 h 10.008 v -19.224 c 1.728,2.232 3.312,4.392 4.392,6.12 l 6.12,-7.416 v 20.232 h 10.08 v -2.592 h 10.728 v 2.16 H 110.5217 v -44.064 H 79.057703 v 23.112 c -2.088,-2.016 -7.416,-6.768 -10.512,-9.288 v -0.648 h 8.928 v -9.432 h -8.928 v -6.264 h -2.304 l 5.4,-2.592 c -0.432,-1.152 -1.152,-2.592 -2.016,-4.032 h 6.696 c -0.792,0.792 -1.584,1.584 -2.376,2.232 2.448,1.296 6.84,4.176 8.856,5.904 2.16,-2.16 4.392,-4.968 6.408,-8.064 h 1.8 c 2.016,2.808 4.032,6.12 4.896,8.352 l 8.927997,-3.6 c -0.648,-1.368 -1.728,-3.024 -2.952,-4.752 h 10.728 z"
           style="font-size:72px;text-align:justify;text-anchor:start;fill:#0000ff"
           id="path922" />
        <path
           d="m 171.2897,174.33222 c 5.472,2.592 13.104,6.264 18.576,9.216 h -38.592 c 5.688,-2.808 11.592,-6.192 16.128,-9.72 l -7.2,-6.48 c -3.816,2.592 -8.208,4.824 -12.672,6.696 v -8.712 h 43.128 v 7.2 c -4.464,-2.016 -9.144,-3.96 -12.672,-5.472 z m 30.24,-18.432 h -25.344 c -0.936,-2.664 -2.448,-5.976 -3.6,-8.568 l -11.232,3.024 c 0.648,1.656 1.368,3.672 2.016,5.544 h -26.136 v 18.504 h 9.432 c -3.024,1.224 -6.048,2.232 -9,3.024 l 5.832,9.648 c 1.296,-0.504 2.664,-1.152 4.032,-1.728 v 7.488 h 15.84 v 11.808 h -25.344 v 9.432 h 62.928 v -9.432 h -26.352 v -11.808 h 17.064 v -8.352 c 0.864,0.504 1.656,0.936 2.304,1.368 l 7.2,-8.352 c -2.304,-1.224 -5.616,-2.736 -9.072,-4.32 h 9.432 z"
           style="font-size:72px;text-align:justify;text-anchor:start;fill:#0000ff"
           id="path924" />
        <path
           d="m 156.7457,231.93222 c -2.52,-3.24 -7.992,-7.92 -12.024,-11.088 l -6.624,6.336 c 4.032,3.528 9.288,8.568 11.52,11.952 z m 25.488,32.976 v 4.32 h -4.68 v -4.32 z m 7.488,11.448 v -18.576 h -19.584 v 21.744 h 7.416 v -3.168 z m -19.512,-29.232 v 7.2 h 20.304 v -7.2 h -6.408 v -3.528 h 5.112 v -7.2 h -5.112 v -4.032 h -7.992 v 4.032 h -4.752 v 7.2 h 4.752 v 3.528 z m 30.672,-24.768 h -41.184 v 28.656 c 0,5.616 -0.144,12.168 -1.224,18.36 -0.864,-1.8 -1.656,-3.744 -2.16,-5.328 l -3.024,2.736 v -24.696 h -17.784 v 10.008 h 7.632 v 18.432 c 0,4.824 -2.736,8.64 -4.752,10.512 1.728,1.296 5.112,4.68 6.264,6.624 1.152,-1.584 3.24,-3.528 12.096,-11.664 -0.792,2.448 -1.872,4.752 -3.24,6.768 2.016,1.08 5.832,4.104 7.344,5.76 6.768,-9.72 7.848,-26.064 7.848,-37.512 v -19.584 h 23.04 v 46.44 c 0,1.008 -0.36,1.368 -1.296,1.368 -1.008,0.072 -4.032,0.072 -6.696,-0.144 1.296,2.448 2.664,6.84 2.952,9.432 4.896,0 8.28,-0.216 10.872,-1.8 2.664,-1.656 3.312,-4.32 3.312,-8.64 z"
           style="font-size:72px;text-align:justify;text-anchor:start;fill:#0000ff"
           id="path926" />
        <path
           d="m 264.5297,163.82022 -8.64,-2.016 c -1.008,4.176 -3.096,9.72 -4.968,13.536 l 7.992,2.232 c 2.016,-3.168 4.608,-7.92 6.912,-12.672 2.304,1.944 4.608,4.464 6.048,6.408 7.272,-4.392 14.616,-10.584 19.872,-17.856 l -10.512,-4.248 c -3.6,5.616 -10.944,11.088 -17.136,14.256 z m 17.856,5.184 c -3.816,5.616 -11.52,11.088 -17.712,14.256 2.736,2.088 5.976,5.472 7.704,7.848 7.272,-4.392 14.832,-10.584 20.304,-17.784 z m -30.6,2.808 c -0.792,-2.88 -2.736,-7.128 -4.824,-10.224 l -8.064,2.448 c 1.944,3.312 3.816,7.776 4.392,10.728 z m -25.92,-5.04 c 2.592,3.384 5.112,8.064 5.976,11.232 l 8.064,-3.96 c -1.08,-3.096 -3.672,-7.488 -6.408,-10.656 z m 33.768,-18.144 c -9.288,2.376 -22.608,4.32 -34.848,5.4 1.08,2.232 2.376,6.12 2.664,8.568 12.456,-0.792 26.856,-2.448 38.304,-5.112 z m 5.328,51.696 c -1.8,-2.952 -5.184,-6.624 -8.856,-9.792 h 7.488 v -9.36 h -12.528 v -5.76 h -10.152 v 5.76 h -13.968 v 9.36 h 10.656 c -3.744,5.184 -8.784,10.152 -13.464,13.032 2.16,2.304 4.824,6.552 6.192,9.288 3.528,-2.808 7.272,-6.696 10.584,-10.8 v 14.184 h 10.152 v -18 c 2.952,3.096 5.544,6.408 6.984,9 z m 19.008,-11.592 c -4.824,8.424 -14.184,14.904 -23.4,18.648 2.808,2.448 5.904,6.264 7.56,9.144 10.584,-5.4 20.016,-13.032 26.424,-23.616 z"
           style="font-size:72px;text-align:justify;text-anchor:start;fill:#0000ff"
           id="path928" />
        <path
           d="m 268.7777,277.36422 c -3.816,0 -4.176,-0.576 -4.176,-5.328 v -1.8 h 18.72 c -0.576,5.688 -1.512,7.128 -4.608,7.128 z m -27.288,-17.352 v -4.608 h 11.808 v 4.608 z m 11.808,-19.296 v 5.112 h -11.808 v -5.112 z m 22.896,14.688 v 4.608 h -11.592 v -4.608 z m 0,-14.688 v 5.112 h -11.592 v -5.112 z m 10.728,-10.224 h -22.32 v -9.792 h -11.304 v 9.792 h -22.608 v 43.776 h 10.8 v -4.032 h 11.808 v 1.728 c 0,12.528 3.096,15.984 14.112,15.984 h 12.528 c 9.432,0 12.672,-4.392 14.04,-15.984 -2.088,-0.504 -4.752,-1.44 -7.056,-2.592 z"
           style="font-size:72px;text-align:justify;text-anchor:start;fill:#0000ff"
           id="path930" />
        <path
           d="m 358.7777,205.36422 c -3.816,0 -4.176,-0.576 -4.176,-5.328 v -1.8 h 18.72 c -0.576,5.688 -1.512,7.128 -4.608,7.128 z m -27.288,-17.352 v -4.608 h 11.808 v 4.608 z m 11.808,-19.296 v 5.112 h -11.808 v -5.112 z m 22.896,14.688 v 4.608 h -11.592 v -4.608 z m 0,-14.688 v 5.112 h -11.592 v -5.112 z m 10.728,-10.224 h -22.32 v -9.792 h -11.304 v 9.792 h -22.608 v 43.776 h 10.8 v -4.032 h 11.808 v 1.728 c 0,12.528 3.096,15.984 14.112,15.984 h 12.528 c 9.432,0 12.672,-4.392 14.04,-15.984 -2.088,-0.504 -4.752,-1.44 -7.056,-2.592 z"
           style="font-size:72px;text-align:justify;text-anchor:start;fill:#0000ff"
           id="path932" />
        <path
           d="m 326.9537,255.90822 c 0.072,-2.376 0.072,-4.608 0.072,-6.624 v -1.224 h 3.672 v 7.848 z m 3.744,-25.2 v 9 h -3.672 v -9 z m 8.64,-7.992 h -21.312 v 26.64 c 0,10.152 -0.216,24.048 -3.888,33.48 1.944,1.008 5.904,4.248 7.416,5.976 2.808,-6.552 4.248,-15.624 4.896,-24.264 h 4.248 v 13.32 c 0,0.864 -0.216,1.152 -1.008,1.152 -0.792,0 -2.952,0 -4.968,-0.144 1.152,2.376 2.376,6.552 2.592,9 4.032,0 6.912,-0.216 9.216,-1.8 2.304,-1.512 2.808,-4.104 2.808,-8.064 z m 31.896,40.248 c -1.368,-1.872 -2.88,-3.816 -4.536,-5.832 1.728,-3.888 3.24,-7.992 4.536,-12.168 z m -19.728,13.392 v -5.832 c 1.512,1.584 3.024,3.456 3.816,4.536 2.448,-2.592 4.68,-5.688 6.768,-9.144 1.944,2.736 3.528,5.256 4.608,7.416 l 4.536,-3.672 v 6.696 z m 0,-23.616 c 1.584,1.8 3.24,3.744 4.824,5.688 -1.44,2.592 -3.096,4.968 -4.824,7.056 z m 0,-4.392 v -5.4 h -9.576 v 43.056 h 29.304 v 2.376 h 9.504 v -45.36 h -8.928 l 0.504,-1.8 -8.568,-1.944 c -0.864,3.672 -2.016,7.272 -3.312,10.656 -1.584,-1.728 -3.168,-3.384 -4.68,-4.896 z m 30.816,-18.864 h -14.976 c -1.44,-2.952 -3.672,-6.696 -5.544,-9.576 l -9.36,3.168 c 1.08,1.944 2.376,4.248 3.456,6.408 h -15.12 v 9.792 h 41.544 z"
           style="font-size:72px;text-align:justify;text-anchor:start;fill:#0000ff"
           id="path934" />
        <path
           d="m 407.6657,163.31622 c -0.144,6.048 -1.152,13.968 -2.736,18.576 l 7.632,2.664 c 1.728,-5.472 2.664,-13.896 2.592,-20.304 z m 39.024,15.336 v -9 h 15.12 v 9 z m -16.416,-0.792 c 1.728,-3.384 3.744,-8.712 5.904,-13.464 v 18.576 c 0,5.4 -0.216,11.736 -1.944,17.424 -1.656,-2.232 -7.128,-9.432 -9.792,-12.384 0.504,-4.104 0.648,-8.28 0.648,-12.384 z m 24.624,-17.496 5.184,-2.448 c -0.936,-2.736 -3.096,-6.84 -5.256,-9.864 l -8.928,3.744 c 1.512,2.592 3.168,5.904 4.176,8.568 h -3.384 v -0.072 h -10.512 v 2.592 l -8.424,-3.024 c -0.504,3.456 -1.584,7.776 -2.664,11.52 v -22.248 h -9.576 v 24.768 c 0,12.024 -1.008,25.416 -9.648,35.064 2.16,1.584 5.544,5.328 7.056,7.704 4.824,-5.112 7.704,-11.16 9.504,-17.496 1.944,3.024 3.96,6.192 5.256,8.712 l 6.336,-6.768 c -1.08,3.312 -2.664,6.408 -5.04,9 2.304,1.296 6.696,5.04 8.424,7.056 6.768,-7.344 8.784,-19.296 9.216,-29.232 h 15.192 v 4.032 h 10.152 v -31.608 z"
           style="font-size:72px;text-align:justify;text-anchor:start;fill:#0000ff"
           id="path936" />
        <path
           d="m 407.3057,235.31622 c -0.216,6.048 -1.152,13.968 -2.736,18.576 l 7.848,2.808 c 1.656,-5.544 2.592,-13.968 2.52,-20.448 z m 23.904,14.544 c 1.008,-1.944 2.016,-4.464 3.168,-7.2 v 8.208 h 12.312 v 24.552 h -12.744 l 1.584,-1.584 c -1.296,-2.088 -7.056,-11.16 -9.648,-14.688 0.432,-3.744 0.576,-7.56 0.648,-11.304 z m 26.424,25.56 v -24.552 h 13.752 v -10.08 h -13.752 v -20.16 h -10.944 v 20.16 h -11.52 c 0.792,-1.944 1.656,-3.888 2.52,-5.688 l -9,-3.24 c -0.432,2.88 -1.224,6.48 -2.16,9.72 v -21.096 h -10.44 v 24.552 c 0,11.808 -1.08,25.344 -10.44,34.704 2.304,1.728 5.976,5.832 7.56,8.424 4.752,-4.608 7.776,-9.936 9.792,-15.696 1.656,3.24 3.312,6.624 4.464,9.432 l 3.24,-3.24 v 6.84 h 42.84 v -10.08 z"
           style="font-size:72px;text-align:justify;text-anchor:start;fill:#0000ff"
           id="path938" />
        <path
           d="m 517.1777,156.98022 c -2.736,-2.736 -8.424,-6.12 -12.672,-8.208 l -6.192,7.2 c 4.32,2.376 9.792,6.192 12.168,9 z m -3.096,18.432 c -2.952,-2.592 -8.928,-5.688 -13.392,-7.56 l -5.688,7.632 c 4.536,2.16 10.368,5.688 12.96,8.352 z m -5.616,11.376 c -3.672,8.496 -8.28,17.352 -11.592,22.896 l 9.216,6.336 c 3.6,-7.488 7.056,-15.48 10.08,-23.256 z m 26.856,-18.36 v 8.784 h -11.016 c 1.584,-2.52 3.096,-5.472 4.392,-8.784 z m 17.496,38.16 c -0.864,0 -1.008,-0.288 -1.008,-2.736 v -16.704 h 11.736 v -9.936 h -17.784 v -8.784 h 14.544 v -9.792 h -14.544 v -10.584 h -10.44 v 10.584 h -3.528 c 0.648,-2.52 1.224,-5.112 1.656,-7.704 l -10.512,-1.872 c -1.296,9 -4.176,18.072 -8.496,23.472 2.016,1.008 5.256,3.024 7.56,4.68 h -5.184 v 9.936 h 9.936 c -0.792,8.928 -2.376,16.272 -14.328,20.808 2.304,1.944 5.04,5.904 6.192,8.496 14.616,-6.336 17.424,-16.704 18.576,-29.304 h 4.392 v 16.776 c 0,8.784 1.656,11.808 9.288,11.808 h 4.752 c 6.192,0 8.568,-3.384 9.36,-15.048 -2.664,-0.648 -6.912,-2.376 -8.928,-4.032 -0.216,8.496 -0.432,9.936 -1.512,9.936 z"
           style="font-size:72px;text-align:justify;text-anchor:start;fill:#0000ff"
           id="path940" />
        <path
           d="m 553.4657,244.31622 c -2.88,3.312 -6.912,6.912 -10.944,10.08 -1.8,-4.176 -3.024,-8.712 -3.96,-13.608 h 23.112 v -10.008 h -29.016 l 4.248,-1.296 c -0.72,-2.808 -2.592,-7.056 -4.248,-10.224 l -10.872,3.096 c 1.08,2.592 2.304,5.832 3.024,8.424 h -27.648 v 10.008 h 21.528 c -5.976,6.696 -14.616,12.96 -23.76,16.704 1.8,2.232 4.608,6.552 5.904,9.144 3.168,-1.512 6.336,-3.168 9.288,-5.112 v 10.224 c 0,4.248 -3.456,7.632 -5.616,9.144 1.728,1.656 4.536,5.544 5.472,7.704 2.52,-1.728 6.336,-3.096 27.36,-9.504 -0.792,-2.376 -1.872,-6.696 -2.304,-9.72 l -14.184,3.96 v -19.944 c 2.952,-2.592 5.688,-5.4 8.136,-8.28 3.528,16.56 9.864,29.736 28.296,41.4 1.296,-3.24 4.608,-7.2 7.344,-9.36 -7.848,-4.176 -13.32,-8.856 -17.28,-14.184 4.896,-3.456 10.44,-7.848 15.048,-12.168 z"
           style="font-size:72px;text-align:justify;text-anchor:start;fill:#0000ff"
           id="path942" />
        <path
           d="m 516.6017,329.85222 c 1.728,2.808 3.456,5.688 4.608,7.992 l 5.112,-9.864 c -0.648,8.856 -2.736,18.432 -9.72,25.416 z m 38.664,20.016 c -0.216,0 -0.36,-0.144 -0.504,-0.432 -0.072,-0.288 -0.072,-1.08 -0.072,-2.736 v -50.4 h -28.152 v 23.4 c 0,2.448 -0.072,5.04 -0.216,7.776 -1.584,-1.872 -7.344,-8.352 -9.72,-10.8 v -1.368 h 7.272 v -9.936 h -7.272 v -13.176 h -10.44 v 13.176 h -9.864 v 9.936 h 9 c -2.088,7.992 -6.048,17.28 -10.512,23.544 1.656,2.592 4.104,6.624 5.112,9.72 2.304,-3.168 4.392,-7.2 6.264,-11.592 v 23.616 h 10.44 v -6.768 c 2.448,1.44 6.552,4.896 8.136,6.84 10.656,-10.296 12.456,-28.512 12.456,-40.896 v -13.608 h 7.056 v 41.184 c 0,6.264 0.648,8.208 2.088,9.864 1.368,1.512 3.672,2.232 5.544,2.232 h 4.176 c 1.728,0 3.6,-0.36 4.824,-1.44 1.296,-1.008 2.088,-2.52 2.52,-4.752 0.504,-2.232 0.864,-7.2 0.936,-11.016 -2.52,-0.864 -5.472,-2.52 -7.416,-4.104 0,4.032 -0.072,7.344 -0.144,8.856 -0.072,1.512 -0.144,2.16 -0.36,2.52 -0.144,0.288 -0.36,0.36 -0.576,0.36 z"
           style="font-size:72px;text-align:justify;text-anchor:start;fill:#0000ff"
           id="path944" />
        <path
           d="m 595.4417,216.88422 c 2.736,-4.104 6.336,-10.44 8.496,-15.84 l -10.08,-2.592 c -2.232,5.112 -5.832,10.944 -8.496,14.328 z m 10.8,-14.976 c 0.792,4.608 1.296,10.656 1.296,14.256 l 10.296,-1.512 c -0.072,-3.6 -0.936,-9.432 -1.872,-13.896 z m 29.16,-35.28 c -0.144,6.408 -0.216,12.024 0.144,16.56 -1.8,-1.296 -4.248,-2.88 -6.84,-4.392 0.864,-3.744 1.368,-7.776 1.728,-12.168 z m 0.36,18.432 c 0.864,7.56 3.24,11.88 9,11.88 6.048,0 8.568,-2.664 9.432,-11.952 -2.232,-0.648 -5.76,-2.232 -7.632,-3.816 -0.144,4.608 -0.576,6.84 -1.368,6.84 -1.368,0 -0.936,-11.52 0.072,-30.096 h -14.4 c 0.144,-3.168 0.144,-6.48 0.216,-9.936 h -9.864 c 0,3.528 -0.072,6.84 -0.144,9.936 h -7.632 v 8.712 h 7.272 c -0.216,2.52 -0.432,4.896 -0.864,7.056 l -3.24,-1.728 -3.888,5.904 -0.936,-8.28 -6.264,1.368 v -3.888 h 6.912 v -9.576 h -6.912 v -9.144 h -9.576 v 9.144 h -8.856 v 9.576 h 8.856 v 5.832 c -3.96,0.792 -7.632,1.512 -10.656,2.016 l 2.016,10.08 8.64,-2.016 v 4.32 c 0,0.864 -0.288,1.152 -1.296,1.152 -0.936,0 -3.96,0 -6.624,-0.144 1.224,2.664 2.448,6.696 2.736,9.36 4.896,0 8.568,-0.216 11.304,-1.728 2.736,-1.512 3.456,-4.032 3.456,-8.496 v -6.696 l 6.264,-1.44 c 1.584,0.936 3.384,2.016 5.184,3.168 -1.8,3.456 -4.392,6.408 -8.136,8.856 2.304,1.728 5.184,5.4 6.408,7.848 4.608,-3.096 7.848,-6.84 10.152,-11.232 2.376,1.584 4.464,3.096 5.904,4.392 z m -14.976,16.704 c 1.512,4.536 3.024,10.44 3.384,14.04 l 10.512,-2.016 c -0.576,-3.672 -2.304,-9.36 -4.032,-13.68 z m 14.616,0 c 3.024,4.752 6.696,11.16 8.136,15.12 l 9.936,-4.464 c -1.728,-4.032 -5.688,-10.152 -8.784,-14.544 z"
           style="font-size:72px;text-align:justify;text-anchor:start;fill:#0000ff"
           id="path946" />
        <path
           d="m 606.3137,236.97222 -1.872,0.36 h -17.496 v 10.584 h 13.752 c -2.952,11.736 -8.64,21.096 -16.488,26.568 2.52,1.584 6.768,5.688 8.496,8.064 10.08,-7.776 17.496,-23.04 20.592,-43.056 z m 33.984,-4.752 c -3.096,4.32 -7.632,9.288 -12.024,13.392 -1.08,-2.52 -2.088,-5.04 -2.952,-7.704 v -17.784 h -11.16 v 55.296 c 0,1.224 -0.504,1.656 -1.728,1.656 -1.44,0 -5.4,0 -9.288,-0.216 1.656,3.168 3.456,8.496 3.888,11.736 6.048,0 10.728,-0.504 14.04,-2.376 3.24,-1.872 4.248,-4.968 4.248,-10.728 v -14.976 c 5.184,9.288 11.952,16.776 21.312,21.744 1.728,-3.096 5.328,-7.56 7.848,-9.792 -9.144,-3.96 -16.272,-10.44 -21.528,-18.432 5.184,-3.96 11.592,-9.648 17.064,-14.976 z"
           style="font-size:72px;text-align:justify;text-anchor:start;fill:#0000ff"
           id="path948" />
        <path
           d="m 630.5057,350.08422 v -3.744 h 6.12 v 3.744 z m -1.44,-33.336 -2.808,2.592 c 1.584,0.648 3.312,1.512 4.968,2.376 h -11.952 c 0.936,-1.584 1.872,-3.24 2.664,-4.968 z m -22.68,-8.712 h -6.552 v -4.392 h 6.552 z m 24.336,-4.392 h 7.2 v 4.392 h -7.2 z m -23.688,46.44 h -5.328 v -3.744 h 5.328 z m 45.432,-19.368 v -9 h -11.808 l 1.872,-1.8 c -1.224,-1.008 -3.096,-2.16 -5.112,-3.168 h 10.512 v -21.816 h -26.64 v 21.672 l -5.04,-0.936 v -20.736 h -25.632 v 21.816 h 20.088 c -0.936,1.656 -2.016,3.384 -3.24,4.968 h -21.168 v 9 h 11.448 c -3.6,2.448 -7.992,4.68 -13.104,6.552 1.944,1.8 4.536,5.76 5.472,8.208 0.72,-0.288 1.44,-0.576 2.088,-0.936 v 15.984 h 9.504 v -1.512 h 5.328 v 1.08 h 10.008 v -22.68 h -12.312 c 2.88,-2.088 5.4,-4.32 7.632,-6.696 h 11.952 c 2.16,2.448 4.608,4.68 7.344,6.696 h -10.656 v 23.112 h 9.504 v -1.512 h 6.12 v 1.08 h 10.08 v -14.904 l 1.152,0.36 c 1.368,-2.52 4.32,-6.408 6.48,-8.352 -5.832,-1.368 -11.448,-3.672 -16.056,-6.48 z"
           style="font-size:72px;text-align:justify;text-anchor:start;fill:#0000ff"
           id="path950" />
        <path
           d="m 686.0897,148.05222 c -2.376,4.392 -7.344,10.08 -11.808,13.464 1.584,1.944 3.96,5.904 5.112,8.064 5.688,-4.464 11.88,-11.448 16.056,-18 z m 46.08,22.68 c -0.432,4.896 -1.08,9.36 -2.016,13.536 -1.008,-3.744 -1.728,-7.776 -2.304,-11.88 0.216,-0.576 0.36,-1.08 0.576,-1.656 z m 11.304,0 v -8.712 h -12.6 c 0.936,-4.032 1.656,-8.136 2.232,-12.312 l -9.432,-1.512 c -0.864,7.704 -2.304,15.192 -4.68,21.384 v -15.264 h -6.768 v 10.656 h -2.088 v -16.848 h -7.416 v 16.848 h -1.728 v -10.656 h -6.48 v 12.024 l -7.488,-2.664 c -3.096,6.912 -8.208,14.04 -13.104,18.648 1.656,2.232 4.464,7.416 5.4,9.648 1.008,-1.008 1.944,-2.088 2.952,-3.24 v 27.864 h 9.432 v -41.472 c 1.008,-1.656 1.944,-3.384 2.808,-5.112 v 3.096 h 22.896 c -0.432,0.936 -0.936,1.872 -1.512,2.736 h -21.744 v 8.712 h 24.336 v -2.736 c 1.08,1.44 2.088,2.88 2.592,3.888 0.432,-0.576 0.792,-1.152 1.224,-1.728 0.864,4.608 1.872,9 3.24,12.96 -0.792,1.44 -1.656,2.808 -2.592,4.104 -0.648,-1.8 -1.368,-4.68 -1.8,-6.84 l -4.464,2.304 v -10.44 h -20.16 v 8.136 c 0,4.608 -0.36,10.368 -4.32,14.76 1.656,1.224 5.184,4.968 6.408,6.84 5.4,-5.76 6.624,-14.76 6.624,-21.456 v -0.504 h 3.456 v 3.456 c 0,2.952 -1.152,4.536 -2.376,5.328 1.296,1.944 2.88,6.048 3.384,8.28 1.152,-1.44 3.024,-3.312 12.528,-8.928 -2.232,2.88 -4.968,5.256 -8.208,7.272 1.728,1.728 4.608,5.688 5.544,7.56 4.176,-2.808 7.56,-6.192 10.368,-10.152 2.232,3.816 4.968,6.984 8.352,9.504 1.368,-2.592 4.464,-6.48 6.552,-8.28 -4.104,-2.52 -7.344,-6.12 -9.792,-10.584 3.096,-7.488 4.968,-16.272 6.048,-26.568 z"
           style="font-size:72px;text-align:justify;text-anchor:start;fill:#0000ff"
           id="path952" />
        <path
           d="m 698.2577,227.18022 c -3.096,-1.872 -9.288,-4.896 -13.104,-6.768 l -5.832,7.632 c 3.96,2.232 10.008,5.616 12.816,7.632 z m -4.248,19.296 c -3.168,-1.872 -9.432,-4.824 -13.32,-6.552 l -5.76,7.776 c 4.032,2.16 10.224,5.472 13.032,7.488 z m -6.048,12.024 c -3.744,8.64 -8.424,17.568 -11.808,23.112 l 9.36,6.192 c 3.744,-7.272 7.416,-15.264 10.656,-23.04 z m 16.2,20.736 c 2.016,-5.832 3.096,-12.384 3.672,-18.576 2.088,4.536 4.536,8.64 7.488,12.312 -3.312,2.592 -7.056,4.68 -11.16,6.264 z m 10.368,-40.536 v 8.496 h -6.12 v -8.496 z m 12.672,17.712 c -1.296,3.528 -3.024,6.624 -5.04,9.432 -2.448,-2.88 -4.464,-6.048 -6.048,-9.432 z m 5.904,-9.504 -1.8,0.288 h -6.48 v -8.496 h 5.976 c -0.648,2.016 -1.296,3.888 -1.872,5.328 l 9.072,2.448 c 2.016,-4.104 4.248,-10.296 5.76,-16.056 l -7.704,-1.728 -1.656,0.36 h -9.576 v -9 h -10.296 v 9 h -16.128 v 18.576 c 0,10.512 -0.504,25.416 -7.488,35.496 2.52,0.936 6.984,3.6 8.856,5.184 1.512,-2.16 2.736,-4.68 3.744,-7.272 1.944,2.16 4.392,5.544 5.472,7.56 4.968,-1.944 9.504,-4.752 13.536,-8.28 4.104,3.384 8.856,6.12 14.4,8.136 1.44,-2.736 4.464,-6.84 6.768,-8.928 -5.4,-1.584 -10.08,-3.888 -14.112,-6.84 4.536,-6.192 7.992,-13.824 10.08,-23.04 z"
           style="font-size:72px;text-align:justify;text-anchor:start;fill:#0000ff"
           id="path954" />
        <path
           d="m 677.6657,307.31622 c -0.144,6.048 -1.152,13.968 -2.736,18.576 l 7.632,2.664 c 1.728,-5.472 2.664,-13.896 2.592,-20.304 z m 39.024,15.336 v -9 h 15.12 v 9 z m -16.416,-0.792 c 1.728,-3.384 3.744,-8.712 5.904,-13.464 v 18.576 c 0,5.4 -0.216,11.736 -1.944,17.424 -1.656,-2.232 -7.128,-9.432 -9.792,-12.384 0.504,-4.104 0.648,-8.28 0.648,-12.384 z m 24.624,-17.496 5.184,-2.448 c -0.936,-2.736 -3.096,-6.84 -5.256,-9.864 l -8.928,3.744 c 1.512,2.592 3.168,5.904 4.176,8.568 h -3.384 v -0.072 h -10.512 v 2.592 l -8.424,-3.024 c -0.504,3.456 -1.584,7.776 -2.664,11.52 v -22.248 h -9.576 v 24.768 c 0,12.024 -1.008,25.416 -9.648,35.064 2.16,1.584 5.544,5.328 7.056,7.704 4.824,-5.112 7.704,-11.16 9.504,-17.496 1.944,3.024 3.96,6.192 5.256,8.712 l 6.336,-6.768 c -1.08,3.312 -2.664,6.408 -5.04,9 2.304,1.296 6.696,5.04 8.424,7.056 6.768,-7.344 8.784,-19.296 9.216,-29.232 h 15.192 v 4.032 h 10.152 v -31.608 z"
           style="font-size:72px;text-align:justify;text-anchor:start;fill:#0000ff"
           id="path956" />
      </g>
      <g
         aria-label="刘师傅电话：159-4518-9964"
         transform="matrix(0.26458334,0,0,0.26458334,-1.6252624,161.13369)"
         style="font-style:normal;font-variant:normal;font-weight:900;font-stretch:normal;font-size:40px;line-height:1.25;font-family:'Noto Sans CJK SC';-inkscape-font-specification:'Noto Sans CJK SC Heavy';letter-spacing:0px;word-spacing:0px;fill:#0000ff;fill-opacity:1;stroke:none"
         id="flowRoot4629">
        <path
           d="m 69.666719,333.19023 c -1.28,-2.72 -4,-6.8 -5.92,-9.76 l -10.4,4.24 c 1.28,2.08 2.72,4.72 3.92,7.04 h -16.16 v 10.72 h 24.64 c -0.96,5.52 -2.08,10.64 -3.6,15.44 -3.92,-4.16 -7.92,-8.08 -11.44,-11.6 l -7.84,6.96 c 4.64,4.8 9.76,10.32 14.56,15.92 -4.16,7.76 -9.84,14 -17.44,18.4 2.4,2.16 6.48,6.8 7.92,9.12 7.04,-4.72 12.64,-10.8 17.04,-18.16 2.8,3.68 5.12,7.12 6.72,10.08 l 8.88,-8.4 c -2.32,-3.84 -5.84,-8.4 -9.92,-13.12 2.88,-7.28 5.04,-15.52 6.56,-24.64 h 4.32 v -10.72 h -15.36 z m 26,-0.32 h -11.2 v 44.64 h 11.2 z m 6.000001,-7.44 v 60.96 c 0,1.44 -0.56,1.92 -2.080001,1.92 -1.6,0 -6.64,0 -11.12,-0.16 1.6,3.2 3.28,8.4 3.76,11.68 7.2,0 12.560001,-0.4 16.240001,-2.24 3.6,-1.84 4.72,-4.88 4.72,-11.12 v -61.04 z"
           style="fill:#ff0000"
           id="path959" />
        <path
           d="m 133.50672,333.35023 h -10.32 v 39.28 h 10.32 z m 3.2,22.56 c 0,13.6 -1.28,26.8 -12.4,36.16 2.64,1.6 6.8,5.36 8.72,7.68 12.8,-11.2 14.32,-27.6 14.32,-43.76 v -31.68 h -10.64 z m 58.4,-18 v -10.48 h -46.16 v 10.48 h 17.44 v 5.68 h -15.76 v 44.64 h 10.48 v -34.32 h 5.28 v 45.84 h 10.88 v -45.84 h 5.84 v 23.52 c 0,0.8 -0.24,1.04 -0.96,1.04 -0.64,0 -2.64,0 -4.32,-0.08 1.28,2.64 2.64,6.96 2.96,9.92 4,0 7.12,-0.16 9.76,-1.84 2.64,-1.68 3.28,-4.4 3.28,-8.8 v -34.08 h -16.56 v -5.68 z"
           style="fill:#ff0000"
           id="path961" />
        <path
           d="m 255.74672,389.35023 c 0,0.96 -0.4,1.2 -1.52,1.28 -0.88,0 -4.08,0 -6.88,-0.08 -2,-2.56 -5.36,-6.08 -8.16,-8.96 h 16.56 z m -0.96,-29.84 v -2.16 h 6.32 v 2.16 z m -17.28,0 v -2.16 h 6.24 v 2.16 z m 6.24,-10.8 v 2.08 h -6.24 v -2.08 z m 17.36,0 v 2.08 h -6.32 v -2.08 z m 15.28,23.92 h -9.44 v -2.32 h 5.36 v -28.8 h -17.52 v -2.08 h 20.88 v -8.88 h -6.8 l 2.72,-2.4 c -2,-1.44 -5.68,-3.6 -8.32,-4.96 l -6.24,5.12 c 1.04,0.64 2.24,1.44 3.44,2.24 h -5.68 v -6.56 h -11.04 v 6.56 h -17.76 c 0.4,-0.96 0.8,-1.84 1.12,-2.8 l -10.96,-3.44 c -3.84,11.04 -10.48,22.08 -17.36,29.04 1.92,2.88 5.04,9.36 6.08,12.24 1.28,-1.44 2.64,-2.96 3.92,-4.56 v 38.88 h 11.04 v -56.08 c 1.68,-3.12 3.2,-6.4 4.64,-9.6 v 5.2 h 19.28 v 2.08 h -16.96 v 29.04 h 10.72 v -4.48 h 6.24 v 2.24 h 11.04 v -2.24 h 6.32 v 2.48 h -5.36 v 4.08 h -32.72 v 8.96 h 12.08 l -6.08,3.52 c 3.04,3.52 7.36,8.48 9.28,11.36 l 8.24,-5.04 c 1.12,2.64 2.32,6.08 2.64,8.64 5.6,0 10,-0.08 13.36,-1.44 3.52,-1.52 4.4,-4 4.4,-8.88 v -8.16 h 9.44 z"
           style="fill:#ff0000"
           id="path963" />
        <path
           d="m 328.86672,387.59023 c -4.24,0 -4.64,-0.64 -4.64,-5.92 v -2 h 20.8 c -0.64,6.32 -1.68,7.92 -5.12,7.92 z m -30.32,-19.28 v -5.12 h 13.12 v 5.12 z m 13.12,-21.44 v 5.68 h -13.12 v -5.68 z m 25.44,16.32 v 5.12 h -12.88 v -5.12 z m 0,-16.32 v 5.68 h -12.88 v -5.68 z m 11.92,-11.36 h -24.8 v -10.88 h -12.56 v 10.88 h -25.12 v 48.64 h 12 v -4.48 h 13.12 v 1.92 c 0,13.92 3.44,17.76 15.68,17.76 h 13.92 c 10.48,0 14.08,-4.88 15.6,-17.76 -2.32,-0.56 -5.28,-1.6 -7.84,-2.88 z"
           style="font-size:80px;fill:#0000ff"
           id="path965" />
        <path
           d="m 384.38672,337.11023 c -2.88,-3.52 -8.96,-8.72 -13.28,-12.32 l -7.44,7.04 c 4.32,4 10.24,9.6 12.8,13.28 z m -4.4,38.72 v -27.44 h -19.2 v 11.12 h 8.32 v 20.96 c 0,4.24 -2.72,7.92 -4.72,9.6 1.92,1.92 5.28,6.48 6.32,9.04 1.52,-2.16 4.56,-4.88 19.68,-18.56 -1.44,-2.16 -3.52,-6.8 -4.56,-10 z m 40.88,11.04 h -18 v -7.84 h 18 z m 15.2,-28.16 v -10.96 h -18.64 v -10.96 c 5.68,-0.88 11.2,-1.92 16.16,-3.2 l -7.52,-9.44 c -9.92,2.72 -24.88,4.72 -38.56,5.68 1.2,2.48 2.64,6.8 3.04,9.52 4.88,-0.24 10,-0.64 15.2,-1.12 v 9.52 h -19.6 v 10.96 h 19.6 v 9.84 h -14.56 v 31.44 h 11.68 v -2.64 h 18 v 2.32 h 12.32 v -31.12 h -15.76 v -9.84 z"
           style="font-size:80px;fill:#0000ff"
           id="path967" />
        <path
           d="m 458.38672,355.59023 c 4.8,0 8.48,-3.68 8.48,-8.32 0,-4.8 -3.68,-8.48 -8.48,-8.48 -4.8,0 -8.48,3.68 -8.48,8.48 0,4.64 3.68,8.32 8.48,8.32 z m 0,37.6 c 4.8,0 8.48,-3.68 8.48,-8.32 0,-4.8 -3.68,-8.48 -8.48,-8.48 -4.8,0 -8.48,3.68 -8.48,8.48 0,4.64 3.68,8.32 8.48,8.32 z"
           style="font-size:80px;fill:#0000ff"
           id="path969" />
        <path
           d="m 44.626719,492.39023 h 37.6 v -11.52 h -10.72 v -48 h -10.48 c -4.16,2.56 -8.32,4.16 -14.72,5.36 v 8.8 h 10.96 v 33.84 h -12.64 z"
           style="fill:#ff0000"
           id="path971" />
        <path
           d="m 109.93672,493.51023 c 11.44,0 21.52,-7.76 21.52,-21.12 0,-12.88 -8.48,-18.8 -18.56,-18.8 -2.24,0 -4,0.32 -6.16,1.2 l 0.88,-10.08 h 21.2 v -11.84 H 95.376719 l -1.52,29.44 6.240001,4.08 c 3.52,-2.24 5.12,-2.88 8.4,-2.88 5.12,0 8.72,3.2 8.72,9.2 0,6.16 -3.6,9.28 -9.36,9.28 -4.72,0 -8.880001,-2.48 -12.240001,-5.68 l -6.48,8.96 c 4.72,4.64 11.280001,8.24 20.800001,8.24 z"
           style="fill:#ff0000"
           id="path973" />
        <path
           d="m 159.08672,460.63023 c -4,0 -7.2,-2.32 -7.2,-8.72 0,-6.88 3.2,-9.52 6.96,-9.52 3.68,0 7.44,2.8 8.64,12.64 -2.32,4.08 -5.52,5.6 -8.4,5.6 z m -19.36,25.76 c 3.76,3.76 9.52,7.12 17.52,7.12 12.16,0 23.52,-10 23.52,-31.6 0,-21.6 -10.96,-30.16 -22.24,-30.16 -10.64,0 -19.6,7.52 -19.6,20.16 0,12.8 7.44,18.72 17.44,18.72 3.44,0 8.48,-2.16 11.36,-6 -0.56,13.04 -5.36,17.36 -11.44,17.36 -3.44,0 -7.12,-1.92 -9.12,-4.08 z"
           style="fill:#ff0000"
           id="path975" />
        <path
           d="m 188.63672,474.23023 h 22.64 v -10 h -22.64 z"
           style="fill:#ff0000"
           id="path977" />
        <path
           d="m 230.62172,466.71023 6.8,-11.76 c 1.68,-3.36 3.28,-6.8 4.8,-10.16 h 0.32 c -0.16,3.76 -0.56,9.44 -0.56,13.2 v 8.72 z m 31.28,0 h -6.64 v -33.84 h -17.52 l -20.72,34.8 v 9.84 h 24.96 v 14.88 h 13.28 v -14.88 h 6.64 z"
           style="fill:#ff0000"
           id="path979" />
        <path
           d="m 286.81172,493.51023 c 11.44,0 21.52,-7.76 21.52,-21.12 0,-12.88 -8.48,-18.8 -18.56,-18.8 -2.24,0 -4,0.32 -6.16,1.2 l 0.88,-10.08 h 21.2 v -11.84 h -33.44 l -1.52,29.44 6.24,4.08 c 3.52,-2.24 5.12,-2.88 8.4,-2.88 5.12,0 8.72,3.2 8.72,9.2 0,6.16 -3.6,9.28 -9.36,9.28 -4.72,0 -8.88,-2.48 -12.24,-5.68 l -6.48,8.96 c 4.72,4.64 11.28,8.24 20.8,8.24 z"
           style="fill:#ff0000"
           id="path981" />
        <path
           d="m 319.00172,492.39023 h 37.6 v -11.52 h -10.72 v -48 h -10.48 c -4.16,2.56 -8.32,4.16 -14.72,5.36 v 8.8 h 10.96 v 33.84 h -12.64 z"
           style="fill:#ff0000"
           id="path983" />
        <path
           d="m 385.75172,493.51023 c 12.48,0 20.8,-6.96 20.8,-16.16 0,-8.16 -4.32,-13.12 -10,-16.08 v -0.4 c 4.08,-2.8 7.52,-7.52 7.52,-13.2 0,-9.68 -7.12,-15.92 -17.84,-15.92 -11.04,0 -18.88,6.16 -18.88,16.08 0,6.32 3.12,10.88 7.76,14.32 v 0.4 c -5.52,2.96 -9.76,7.6 -9.76,15.04 0,9.44 8.72,15.92 20.4,15.92 z m 3.6,-36.08 c -5.84,-2.32 -9.52,-4.88 -9.52,-9.6 0,-4.24 2.8,-6.24 6,-6.24 4.24,0 6.72,2.72 6.72,7.04 0,3.04 -0.96,6.08 -3.2,8.8 z m -3.28,26.16 c -4.64,0 -8.56,-2.8 -8.56,-7.68 0,-3.76 1.6,-7.36 4,-9.68 7.28,3.12 11.84,5.36 11.84,10.56 0,4.72 -3.2,6.8 -7.28,6.8 z"
           style="fill:#ff0000"
           id="path985" />
        <path
           d="m 414.26172,474.23023 h 22.64 v -10 h -22.64 z"
           style="fill:#ff0000"
           id="path987" />
        <path
           d="m 464.08672,460.63023 c -4,0 -7.2,-2.32 -7.2,-8.72 0,-6.88 3.2,-9.52 6.96,-9.52 3.68,0 7.44,2.8 8.64,12.64 -2.32,4.08 -5.52,5.6 -8.4,5.6 z m -19.36,25.76 c 3.76,3.76 9.52,7.12 17.52,7.12 12.16,0 23.52,-10 23.52,-31.6 0,-21.6 -10.96,-30.16 -22.24,-30.16 -10.64,0 -19.6,7.52 -19.6,20.16 0,12.8 7.44,18.72 17.44,18.72 3.44,0 8.48,-2.16 11.36,-6 -0.56,13.04 -5.36,17.36 -11.44,17.36 -3.44,0 -7.12,-1.92 -9.12,-4.08 z"
           style="fill:#ff0000"
           id="path989" />
        <path
           d="m 512.83672,460.63023 c -4,0 -7.2,-2.32 -7.2,-8.72 0,-6.88 3.2,-9.52 6.96,-9.52 3.68,0 7.44,2.8 8.64,12.64 -2.32,4.08 -5.52,5.6 -8.4,5.6 z m -19.36,25.76 c 3.76,3.76 9.52,7.12 17.52,7.12 12.16,0 23.52,-10 23.52,-31.6 0,-21.6 -10.96,-30.16 -22.24,-30.16 -10.64,0 -19.6,7.52 -19.6,20.16 0,12.8 7.44,18.72 17.44,18.72 3.44,0 8.48,-2.16 11.36,-6 -0.56,13.04 -5.36,17.36 -11.44,17.36 -3.44,0 -7.12,-1.92 -9.12,-4.08 z"
           style="fill:#ff0000"
           id="path991" />
        <path
           d="m 563.98672,482.87023 c -3.76,0 -7.44,-2.96 -8.64,-12.88 2.4,-3.92 5.44,-5.36 8.4,-5.36 3.92,0 7.12,2.16 7.12,8.72 0,6.72 -3.12,9.52 -6.88,9.52 z m 19.12,-44 c -3.76,-3.84 -9.52,-7.12 -17.36,-7.12 -12.32,0 -23.68,9.84 -23.68,31.36 0,21.68 11.04,30.4 22.24,30.4 10.64,0 19.6,-7.52 19.6,-20.16 0,-12.96 -7.52,-18.72 -17.44,-18.72 -3.36,0 -8.4,2.08 -11.36,5.84 0.56,-12.96 5.44,-17.36 11.6,-17.36 3.28,0 6.96,2.08 8.88,4.16 z"
           style="fill:#ff0000"
           id="path993" />
        <path
           d="m 602.49672,466.71023 6.8,-11.76 c 1.68,-3.36 3.28,-6.8 4.8,-10.16 h 0.32 c -0.16,3.76 -0.56,9.44 -0.56,13.2 v 8.72 z m 31.28,0 h -6.64 v -33.84 h -17.52 l -20.72,34.8 v 9.84 h 24.96 v 14.88 h 13.28 v -14.88 h 6.64 z"
           style="fill:#ff0000"
           id="path995" />
      </g>
    </g>
  </g>
</svg>
